<?xml version="1.0" encoding="utf-8"?>
<!-- Generator: Adobe Illustrator 22.0.0, SVG Export Plug-In . SVG Version: 6.00 Build 0)  -->
<svg version="1.1" id="Layer_1" xmlns="http://www.w3.org/2000/svg" xmlns:xlink="http://www.w3.org/1999/xlink" x="0px" y="0px"
	 viewBox="0 0 308.9 211.8" style="enable-background:new 0 0 308.9 211.8;" xml:space="preserve">
<style type="text/css">
	.st0{fill:#0BBBEF;}
	.st1{fill:#123274;}
	.st2{fill:#FFCC00;}
	.st3{fill:none;stroke:#0BBBEF;stroke-width:0.5384;stroke-linecap:round;stroke-linejoin:round;stroke-miterlimit:10;}
	.st4{fill:none;stroke:#123274;stroke-width:0.5384;stroke-linecap:round;stroke-linejoin:round;stroke-miterlimit:10;}
	.st5{fill:none;stroke:#FFCC00;stroke-width:0.5384;stroke-linecap:round;stroke-linejoin:round;stroke-miterlimit:10;}
	.st6{clip-path:url(#SVGID_4_);}
	.st7{fill:url(#SVGID_5_);}
	.st8{fill:url(#SVGID_6_);}
	.st9{fill:url(#SVGID_7_);}
	.st10{fill:url(#SVGID_8_);}
	.st11{fill:url(#SVGID_9_);}
	.st12{fill:url(#SVGID_10_);}
	.st13{fill:url(#SVGID_11_);}
	.st14{fill:url(#SVGID_12_);}
	.st15{fill:url(#SVGID_13_);}
	.st16{fill:url(#SVGID_14_);}
	.st17{fill:url(#SVGID_15_);}
	.st18{fill:url(#SVGID_16_);}
	.st19{fill:url(#SVGID_17_);}
	.st20{fill:url(#SVGID_18_);}
	.st21{fill:url(#SVGID_19_);}
	.st22{fill:url(#SVGID_20_);}
	.st23{clip-path:url(#SVGID_26_);}
	.st24{fill:url(#SVGID_27_);}
	.st25{fill:url(#SVGID_28_);}
	.st26{fill:url(#SVGID_29_);}
	.st27{fill:url(#SVGID_30_);}
	.st28{fill:url(#SVGID_31_);}
	.st29{fill:url(#SVGID_32_);}
	.st30{fill:url(#SVGID_33_);}
	.st31{fill:url(#SVGID_34_);}
	.st32{fill:url(#SVGID_35_);}
	.st33{fill:url(#SVGID_36_);}
	.st34{fill:url(#SVGID_37_);}
	.st35{fill:url(#SVGID_38_);}
	.st36{fill:url(#SVGID_39_);}
	.st37{fill:url(#SVGID_40_);}
	.st38{fill:url(#SVGID_41_);}
	.st39{fill:url(#SVGID_42_);}
</style>
<g>
	<g>
		<g>
			<path class="st0" d="M186.3,116.2c-3.2-0.1-6.3,0.6-9.4,1.1c-2.9,0.4-5.9,0.8-8.8,1.7c-0.3,0.1-0.1,0.8,0.2,0.8
				c3.2-0.1,6.3-0.7,9.4-1.2c2.9-0.5,6-0.7,8.8-1.5C186.8,116.9,186.6,116.2,186.3,116.2z"/>
			<path class="st0" d="M240.8,60.1c0.1,0,0.1-0.2,0-0.2c-3.1,0.1-6.2,0.3-9.3,0.7c-0.1,0-0.1,0.2,0,0.2
				C234.6,60.7,237.8,60.4,240.8,60.1z"/>
			<path class="st0" d="M255.3,87.1c0.1,0,0.1,0.1,0.2,0.1c0,0,0.1,0,0.1-0.1c0.2,0,0.5,0,0.7,0c0.1,0,0.1-0.2,0-0.2
				c-0.3-0.1-0.6-0.1-0.9-0.1C255.3,86.8,255.2,87,255.3,87.1z"/>
			<path class="st0" d="M253.7,84.3c0.6-0.1,1.2-0.3,1.8-0.2c0.1,0,0.1-0.2,0-0.3c0.4,0,0.9,0,1.3,0c0.1,0,0.1-0.2,0-0.2
				c-0.5-0.1-1-0.1-1.5-0.1c-0.2,0-0.5,0-0.7,0c0,0,0,0-0.1,0.1c-0.1,0-0.1,0-0.2,0c-0.1,0-0.2,0.1-0.1,0.2c-0.1-0.2-0.4,0-0.4,0.2
				c-0.1,0-0.2,0.1-0.2,0.1C253.6,84.2,253.7,84.3,253.7,84.3z"/>
			<path class="st0" d="M257.2,101c-0.6-0.1-1.2-0.2-1.8-0.2c-0.1-0.1-0.2-0.2-0.3-0.2c-1.1-0.1-2.3-0.1-3.4-0.1
				c1-0.2,2.1-0.4,3.1-0.7c0.1,0,0.1-0.1,0.1-0.1l0.5-0.1l0,0c0,0,0,0,0,0l0.1,0c0.1,0,0.1-0.2,0-0.3c-0.1,0-0.3-0.1-0.4-0.1
				c0,0,0-0.1,0-0.1l0,0c-0.1-0.1-0.1-0.1-0.2,0c0,0,0,0,0,0c0-0.1-0.1-0.1-0.2-0.1c-1.2,0.2-2.4,0.3-3.6,0.4
				c-0.4-0.1-0.9-0.2-1.3-0.2c0.3,0,0.5-0.1,0.8-0.1c0,0,0,0,0.1-0.1l0.7,0c0.3,0,0.4-0.4,0.3-0.7c0,0,0.1,0,0.1,0
				c0.1,0,0.1-0.2,0-0.3l0,0c0.1-0.1,0.1-0.2,0.1-0.3c0.3,0,0.7,0,1-0.1c0.1,0,0.1-0.3,0-0.3c-0.4,0-0.7,0-1.1,0
				c-0.1-0.1-0.1-0.1-0.2-0.1c-0.5,0-1.1,0.1-1.6,0.1l1-0.2c0.2,0,0.3-0.2,0.3-0.4l0.5,0c1.1,0.1,2.3,0,3.4-0.1
				c0.1,0,0.1-0.1,0.1-0.2c0.7-0.1,1.4-0.2,2.2-0.3c0.2,0,0.2-0.3,0.1-0.5c0.8,0,1.7,0,2.2-0.6c0.1-0.2,0.1-0.5,0-0.7l0,0
				c0.1,0,0.1,0,0.2-0.1l0,0c0,0,0,0,0,0c0.1-0.1,0.1-0.1,0.1-0.2c0-0.1,0-0.2-0.1-0.2l-0.1,0c0,0,0,0,0,0.1l0,0c-0.1,0-0.3,0-0.3,0
				c-0.1,0-0.1,0.1-0.1,0.2c-0.8,0-1.5,0-2.3,0c-2.1-0.1-4.1-0.2-6.2,0.1c-0.7,0.1-1.4,0.2-2.1,0.2c0-0.5-0.3-1-0.6-1.1
				c1.3-0.1,2.5-0.3,3.8-0.6c0.7-0.2,0.5-1.4,0-1.6c1.5-0.2,3-0.6,4.3-1.4c0.1-0.1,0.1-0.4-0.1-0.4c-2.5-0.2-5.1,0.5-7.6,0.7
				c0,0-0.1,0-0.1,0c-0.1,0-0.1,0-0.2,0c-0.7-0.1-1.4-0.1-2.1-0.1c1-0.1,2-0.2,3-0.3c0.4,0,0.4-0.8,0-0.8l-1.7-0.1
				c0.1-0.1,0.1-0.2,0.2-0.4l0.7-0.1c0,0.1,0.1,0.2,0.2,0.1c0.7-0.1,1.5-0.3,2.2-0.3c0.2,0,0.3-0.2,0.3-0.4c1.2-0.1,2.5-0.1,3.7-0.3
				c0.4,0,0.4-0.8,0-0.8c-3.2-0.3-6.5-0.3-9.8-0.2c0,0,0,0,0,0c-0.2-0.1-0.4-0.2-0.5-0.3c0,0,0.1-0.1,0.1-0.1c0,0,0-0.1,0-0.1
				c0.1,0,0.2-0.1,0.2-0.3l0,0c0,0,0,0.1,0.1,0.1c0.1,0,0.1,0,0.2,0c0.1,0,0.2,0,0.3,0c0,0,0.1,0,0.1-0.1c0.3-0.1,0.5-0.1,0.8-0.2
				c0.4,0,0.8,0,1.2-0.1c0.1,0,0.1-0.2,0-0.2c-0.5-0.1-1.2-0.1-1.7,0.1c0,0,0-0.1,0-0.1c0.1,0,0.1,0,0.2,0c0.5-0.1,1-0.4,1.5-0.2
				c0.1,0,0.1-0.1,0.1-0.1c0-0.1,0.7,0,0.8,0c0.1,0,0.1-0.2,0-0.2c-0.3-0.1-0.5-0.1-0.8-0.1c1.5-0.2,3.1-0.4,4.6-0.2
				c0.2,0,0.3-0.1,0.3-0.3l0.2,0.1c-0.1,0.1-0.1,0.3,0,0.4c0,0.1,0.1,0.1,0.1,0c0.1-0.2,0.1-0.3,0.3-0.4c0.1,0,0.1-0.1,0.1-0.2
				c0.1,0,0.2,0,0.2,0c0.1,0,0.1-0.2,0-0.3c0-0.1,0-0.1-0.1-0.1c-0.4-0.1-0.8-0.1-1.2-0.1c-0.4-0.1-0.7-0.1-1.1-0.1l0,0l0,0l0,0
				c0,0,0,0-0.1,0c-1.5-0.1-3-0.1-4.5,0c-0.1-0.1-0.2-0.2-0.4-0.2l-0.2,0c0,0-0.1,0-0.1,0c-0.1,0-0.2,0-0.3,0l-1.4,0.1
				c0.1-0.3-0.1-0.7-0.4-0.7c-0.4,0-0.8-0.1-1.2-0.1c0.1,0,0.1-0.2,0-0.3c0.5,0,0.9,0,1.4,0c0.1,0,0.1-0.2,0-0.2l-0.3,0l0.5-0.1l0,0
				l0,0c0.7-0.2,1.5-0.3,2.2-0.4c0.2,0,0.2-0.6,0-0.7c-0.1,0-0.2,0-0.2,0c0.3-0.1,0.6-0.1,0.9-0.2c0.7-0.2,1.3-0.1,1.9-0.7
				c0,0,0,0,0,0l0.2-0.1c0,0,0.1-0.1,0.1-0.1l0.3,0l0,0c0.1,0,0.1-0.2,0-0.3c-0.1,0-0.2,0-0.3,0c0,0-0.1-0.1-0.1-0.1
				c-0.5-0.1-1.1-0.2-1.6-0.2c1-0.1,2.1-0.3,3.1-0.5c0,0,0.1,0.1,0.1,0.1c0.4-0.1,0.8-0.3,1.1-0.5c0.1,0,0.2-0.1,0.4-0.2
				c0.2-0.1,0.3-0.1,0.5-0.1c0.1,0,0.2-0.1,0.1-0.2c0,0,0,0,0-0.1c0,0,0-0.1,0-0.1c0,0,0.1,0,0.1,0c0.1,0,0.2-0.2,0.1-0.3
				c0.3,0,0.7,0,1,0c0.1,0,0.2-0.3,0-0.3c-0.1,0-0.1,0-0.1,0c-0.4-0.1,0.4-2.6,0.1-2.5c0.1-3.7-2.4-3.5-5.6-7.8
				c1.9-0.1,3.8-0.2,5.7-0.5l2.3-0.1c0.1,0,0.1-0.1,0-0.1l0,0c0.1,0,0.1-0.2,0-0.2c-0.3,0-0.7,0.1-1,0.1c0.1-0.2,0-0.7-0.2-0.7
				c-2-0.1-4.1,0-6.1,0.1c0.3-0.1,0.7-0.2,1-0.4c0.1,0,0.1-0.1,0.1-0.2c0.6-0.1,1.2-0.2,1.8-0.3c0.1,0,0.1-0.2,0-0.2
				c-0.6,0-1.2,0-1.8,0.1c0-0.1-0.1-0.2-0.2-0.3c-0.6-0.2-1.2-0.2-1.8-0.1c0-0.2-0.1-0.5-0.3-0.6c0.1-0.2,0.1-0.4,0-0.6
				c0.4-0.2,0.7-0.3,1.1-0.6c0.1-0.1,0.2-0.2,0.2-0.3c0.4-0.1,0.9-0.2,1.3-0.4c0.1,0,0.1-0.3,0-0.4c-0.2-0.1-0.3-0.1-0.5-0.1
				c0.5,0,1-0.1,1.5-0.1c0.1,0,0.1-0.2,0-0.2c-0.9,0-1.8,0-2.7,0c-1.6-0.2-3.2-0.1-4.8-0.1c-2.2,0-4.3,0.2-6.5,0.3
				c-1.8,0.1-3.6,0.3-5.4,0.5c-0.9,0.1-1.8,0.2-2.7,0.4c-0.9,0.2-1.8,0.3-2.6,0.5c-2.6,0.2-5.3,0.5-7.9,0.7l-4,0.4l-3.9,0.5
				c-1.1,0.1-2.2,0.2-3.4,0.4c0,0,0,0,0,0c-2.4,0.3-4.8,0.6-7.2,0.9l-7.8,1.2l-3.9,0.6l-1.9,0.3l-1.9,0.3l-7.7,1.3
				c-2.6,0.4-5.2,0.9-7.7,1.4c-5.7,1.1-11.5,2-17,3.8c-0.2,0.1-0.1,0.5,0.1,0.5c1.3-0.2,2.6-0.3,3.9-0.5l3.9-0.6
				c2.6-0.4,5.2-0.9,7.7-1.4l3.8-0.8c1.3-0.3,2.6-0.5,3.9-0.7c2.6-0.5,5.1-1,7.7-1.4l3.4-0.6l3.4-0.5l6.8-1.1l3.4-0.5
				c1.1-0.2,2.3-0.3,3.4-0.5l6.9-1c0,0,0,0.1,0,0.1c-1.6,0.3-3.2,0.7-4.8,1l-1.3,0.2l-3.8,0.5l-3.7,0.5l-7.5,1.1
				c-2.5,0.3-5,0.8-7.5,1.2l-7.5,1.3c-2.5,0.4-5,1-7.4,1.5c-2.5,0.5-4.9,1.1-7.4,1.6c-0.2,0-0.1,0.3,0,0.3c3.3-0.5,6.6-1,9.9-1.6
				c-0.9,0.3-1.8,0.5-2.7,0.7c-3.1,0.7-6.2,1.2-9.3,1.8c-3.1,0.6-6.3,1.1-9.4,1.5c-1.6,0.3-3.1,0.5-4.7,0.8
				c-1.6,0.3-3.1,0.6-4.7,0.9c-1.9,0.4-3.9,0.8-5.8,1.2l-2.9,0.6l-2.9,0.7c-3.9,0.9-7.7,1.9-11.6,2.9c-2.3,0.6-4.6,1.3-7,1.6l5-1.2
				l2.5-0.6l2.5-0.6c3.3-0.8,6.6-1.6,9.9-2.5c1.7-0.5,3.3-0.9,5-1.3c1.7-0.4,3.3-0.9,5-1.3c1.7-0.4,3.3-0.9,5-1.4
				c1.7-0.5,3.3-0.9,5-1.4c0.1,0,0-0.2-0.1-0.2c-1.5,0.3-3,0.6-4.6,0.9c-1.5,0.4-3,0.7-4.5,1.1c-3,0.7-6,1.5-9,2.3
				c-3,0.8-6,1.6-9,2.4c-1.5,0.4-3,0.8-4.5,1.2l-4.5,1.2c-2.4,0.6-4.8,1.2-7.1,1.8c-0.3,0-0.6,0-0.9-0.1c-0.2,0-0.4,0.2-0.4,0.4
				c-1.8,0.4-3.6,0.9-5.4,1.4c-1.8,0.5-3.6,1-5.4,1.5l-4.4,1.1c-4.8,1.2-9.6,2.5-14.3,3.8c-4.7,1.3-9.3,2.7-14,4.1
				c-3.7,1.2-7.8,2.1-10.9,4.6c-0.9,0.3-1.9,0.5-2.7,0.9c-1.4,0.8-2.8,1.5-4.4,2c-2.4,0.7-5.2,1.2-7,3.3c-0.1,0.1,0.1,0.3,0.2,0.2
				c1.2-0.7,2.5-1.2,3.7-1.7c0,0.2,0,0.4,0.2,0.5c-0.8,0.4-1.5,0.7-2.2,1.1c-0.3,0.2,0,0.8,0.3,0.8c0.7-0.1,1.2-0.3,1.7-0.7
				c0,0,0,0.1,0,0.1l-0.2,1c0,0.2,0.1,0.5,0.3,0.5c0.3,0.1,0.6,0.1,0.8,0.1c0,0.1,0.1,0.2,0.2,0.4c-0.5,0.5-1,1-1.3,1.8
				c-0.1,0.3,0.1,0.8,0.4,0.8c0.1,0,0.1,0,0.2,0c0,0,0.1,0.1,0.1,0.1l-0.2,0.1c-0.7,0.3-1.4,0.5-2.1,0.8c-0.2,0.1-0.1,0.4,0.1,0.4
				c0,0,0.1,0,0.1,0c-0.1,0.2,0.1,0.6,0.4,0.7l-0.5,0.2c-0.3,0.1-0.2,0.6,0.1,0.7c0.4,0.1,0.8,0,1.2-0.1c0,0,0,0,0,0.1
				c0.5,0.9,1.1,1,1.8,0.9l-0.3,0.1c-0.1,0-0.1,0.2-0.1,0.3l-0.5,0.2c-0.2,0.1-0.1,0.4,0.1,0.4c0.4,0,0.8,0,1.2-0.1
				c0,0.1,0.1,0.2,0.2,0.2c0.1,0,0.1,0,0.1,0l0,0.2c-0.1,0.1-0.1,0.2-0.1,0.4c0,0.2,0.1,0.5,0.2,0.8c-0.2,0-0.3,0.1-0.5,0.2
				c-0.1,0.1-0.2,0.3-0.3,0.4c0,0-0.1,0-0.1,0c-0.2,0-0.2,0.2-0.1,0.4l0,0c-0.1,0.1,0,0.3,0.1,0.4c0.2,0.1,0.4,0.1,0.5,0.1
				c0.2,0,0.5,0,0.7,0c0.1,0.5,0.6,0.9,1,1.2c0.6,0.6,1.3,0.9,2,1l0,0c-0.9,0.3-1.8,0.8-2.6,1.3c-0.3,0.2-0.2,0.7,0.1,0.9
				c-0.7,0.1-1.4,0.4-1.9,0.8c-0.1,0.1,0,0.3,0.1,0.3c0.1,0,0.2-0.1,0.2-0.1c0,0,0,0,0,0c0.1-0.1,0.2-0.1,0.3-0.2
				c0,0.1,0,0.3,0.1,0.4c0.1,0.2,0.3,0.3,0.5,0.3c0.3-0.1,0.6-0.3,1-0.4c0,0.1,0,0.2,0.1,0.2c0.1,0,0.3,0,0.4,0l0,0.1
				c-0.1,0.1,0,0.3,0.1,0.3c0.1,0,0.3,0,0.4,0c0.1,0.1,0.2,0.2,0.3,0.3c0.3,0.6,0.8,0.9,1.3,1.1l-0.1,0c-0.2,0.1-0.4,0.1-0.6,0.2
				c-0.1,0,0,0.2,0,0.2c0.1,0,0.1,0,0.2,0c0,0-0.1,0.1-0.1,0.1c0,0,0,0,0,0.1c-0.7,0.2-1.3,0.5-1.9,0.7c-0.2,0.1-0.3,0.3-0.3,0.6
				c-0.1,0-0.2,0.1-0.3,0.1c-0.1,0,0,0.2,0,0.2c0.1,0,0.2,0,0.2,0c0,0,0,0,0,0.1c0,0.1,0.1,0.1,0.1,0.1c0,0,0.1,0,0.1,0
				c0.1,0.1,0.1,0.1,0.3,0.1l0.9,0.2l-0.1,0.1c-0.5,0.3-0.1,1.3,0.4,1.4c2,0.3,3.8,0.3,5.5-0.2c-1.3,0.5-2.5,1-3.7,1.7
				c-0.3,0.1-0.5,0.3-0.7,0.4c-0.1,0-0.1,0.1,0,0.2c-0.1,0-0.2,0.1-0.3,0.1c-0.1,0.1,0,0.2,0.1,0.3c0.2,0.1,0.5,0.3,0.7,0.3
				c0.1,0.1,0.2,0.1,0.4,0.1c0.1,0,0.3-0.1,0.4-0.1c0.1,0.2,0.2,0.4,0.3,0.4c-0.1,0-0.1,0.1-0.2,0.1c-0.5,0.2-0.3,1.2,0.3,1.3l1,0.2
				c0.1,0.5,0.3,0.9,0.5,1.4c0,0.1,0,0.3,0.1,0.3l0.1,0c0.1,0.1,0.3,0.2,0.5,0.1c0.5-0.1,0.9-0.3,1.4-0.5c0,0,0,0,0,0l0.7-0.2
				c0,0,0,0,0.1,0c0,0,0.1,0,0.1,0l0.8-0.1c-1.2,0.4-3.5,0.9-3.1,2.8c0.1,0.5,0.5,0.8,0.9,0.7l0.1-0.1c0,0,0,0.1-0.1,0.2
				c-0.1,0.1-0.2,0.3-0.1,0.5l-0.1,0c-0.1,0-0.1,0.2,0,0.3l0,0c-0.1,0-0.1,0.2,0,0.3c-0.1,0.1-0.3,0.1-0.4,0.2
				c-0.2,0.1,0,0.4,0.2,0.3l0.1-0.1c0,0,0,0,0.1,0c0.8-0.4,1.6-0.6,2.4-0.8l0.1,0c-0.3,0.3,0,0.9,0.5,0.9l1.2-0.1l-0.2,0.1
				c-0.2,0.1-0.3,0.3-0.3,0.5c-0.1,0.1-0.1,0.3,0,0.4c0,0,0.1,0,0.1,0.1c0,0.1,0.1,0.1,0.2,0.2c0,0,0,0.1,0,0.1
				c-0.1,0-0.2,0.1-0.3,0.1l0,0l0,0l0,0c-0.1,0.1,0,0.4,0.1,0.4c0.1,0,0.2,0,0.4,0c0,0-0.1,0.1-0.1,0.1c-0.1,0.1,0,0.2,0.1,0.2
				c0.6-0.1,1.2-0.4,1.7-0.6c0.7-0.1,1.3-0.4,1.9-0.7c1.7-0.7,3.4-1.3,5.2-1.8c0.2,0.3,0.4,0.4,0.7,0.3l1.6-0.5c0,0,0.1,0,0.1,0l0,0
				c-1.4,0.5-2.9,0.9-4.3,1.5c-1.4,0.5-2.8,1.1-4.1,1.9c-0.1,0-0.2,0.1-0.2,0.2c-0.2,0.1-0.4,0.1-0.6,0.2c0,0-0.1,0-0.1,0.1
				c-0.3,0.1-0.7,0.2-0.9,0.5c-0.1,0.1,0.1,0.3,0.2,0.2c0.2-0.2,0.5-0.3,0.8-0.4c0,0,0.1,0,0.1,0l0.2-0.1c0,0,0,0,0.1,0.1l0,0l0,0
				c-0.1,0.1,0,0.3,0.1,0.3c0.3,0,0.8,0.1,1.1,0c0.1,0.4,0.5,0.9,0.8,0.8l1.1-0.1c0,0.1,0.1,0.1,0.1,0.1c0.2-0.1,0.4-0.1,0.6-0.1
				l0,0c-0.1,0.1-0.1,0.3,0.1,0.3l0.2,0.1l-0.2,0.2c-0.1,0-0.1,0.1,0,0.2c-0.2,0.1-0.5,0.2-0.7,0.3c-0.1,0,0,0.2,0.1,0.1
				c0.1,0,0.3,0,0.4-0.1c0,0.1,0.1,0.2,0.2,0.2c0.2-0.1,0.4-0.1,0.6-0.2c0,0,0.1,0.1,0.1,0.1c0.4-0.1,0.9-0.2,1.3-0.4l0.2,0
				c0,0,0,0,0,0c0.1,0,0.1-0.1,0.2-0.1c0.7-0.1,1.3-0.3,1.9-0.7c0,0,0.1-0.1,0.1-0.1c3.3-1,6.5-2.2,9.7-3.5l1.9-0.6l1.9-0.6
				c1.3-0.4,2.6-0.8,3.8-1.2c2.5-0.9,5.1-1.8,7.6-2.7c0.2-0.1,0.1-0.4-0.1-0.4c-2.4,0.9-4.8,1.7-7.3,2.6l5.7-2.1
				c2.7-1,5.7-1.7,8.2-3.1c0.1-0.1,0-0.3-0.1-0.3c-1.5,0.2-2.9,0.7-4.4,1.1c-1.4,0.5-2.9,1-4.3,1.5c-2.9,1-5.9,2-8.8,3.1
				c-2.4,0.8-4.8,1.7-7.1,2.5c-2.4,0.9-4.7,1.8-7,2.8l-0.5,0.1c0-0.1-0.1-0.3-0.2-0.4c1.7-0.6,3.4-1,5-1.8c0.3-0.1,0.3-0.5,0.2-0.8
				l1.8-0.8c1.4-0.5,2.8-0.9,4.3-1.3c0.2,0,0.2-0.3,0.1-0.5c0.8-0.3,1.7-0.6,2.5-0.9c2.1-0.8,4.2-1.5,6.4-2.2
				c2.1-0.7,4.4-1.2,6.5-2.1c0.2-0.1,0-0.5-0.2-0.5c-0.6,0-1.2,0.1-1.8,0.2l0.7-0.2c0.3-0.1,0.3-0.4,0.2-0.7l1.4-0.6
				c3.7-0.8,7.3-1.7,10.9-2.5l8.3-1.8l4.1-0.9l4.1-0.8l8.3-1.7c2.8-0.6,5.5-1.1,8.3-1.6l6.3-1.3l6.3-1.2l6.3-1.2l6.3-1.1
				c-0.9,0.2-1.7,0.4-2.6,0.5c-1,0.2-2,0.3-3,0.5c-1,0.2-2,0.4-2.9,0.7c-0.4,0.1-0.2,0.8,0.1,0.8c1.1,0,2.1,0,3.2-0.1
				c1.1-0.1,2.1-0.3,3.1-0.5c1.9-0.3,3.9-0.6,5.6-1.6c0.3-0.2,0.1-0.6-0.2-0.7c-0.6,0-1.2,0-1.8,0.1l6.3-1.1l6.3-1l6.3-1.1l6.3-1
				c0,0.1,0,0.3,0.1,0.3c2.4,0.4,4.8,0.6,7.2,0.5c2.1-0.1,4.7,0.1,6.5-1.2c0.1-0.1,0.1-0.4-0.1-0.4c-2.1-0.6-4.5,0.1-6.5,0.3
				c-2.1,0.2-4.2,0.3-6.3,0.4l6.9-1.1l7-1c2.3-0.3,4.6-0.7,7-1.1l7-1c0,0.1,0.1,0.1,0.1,0.1l2.3-0.4c1.2-0.2,2.5-0.4,3.7-0.5
				l3.7-0.5c2.5-0.3,5-0.7,7.5-1.1c1.1-0.1,2.2-0.3,3.3-0.4c3.3-0.4,6.7-0.8,10-1.3c1.6-0.3,3.4-0.4,5.1-0.7
				c1.7-0.3,3.4-0.7,4.9-1.5c0.1-0.1,0.1-0.4,0-0.4c-1.5,0-3,0.4-4.5,0.6c-1.9,0.3-3.8,0.6-5.7,0.9c-3.4,0.5-6.9,0.8-10.3,1.2
				c-0.6,0.1-1.2,0.1-1.8,0.2c-3.8,0.3-7.5,0.7-11.3,1c-1.9,0.2-3.8,0.4-5.6,0.6l-5.6,0.7c3-0.6,5.9-1.4,8.9-2.1
				c0.9-0.2,1.9-0.4,2.8-0.6c0,0.1,0.1,0.1,0.2,0.1c2.9-0.1,5.7-0.8,8.5-1.4c0.9-0.2,1.8-0.4,2.8-0.5l10.2-1.2l2.6-0.3l2.6-0.3
				c1.7-0.2,3.4-0.4,5.1-0.7c0.2,0,0.3-0.4,0.2-0.6c1-0.2,1.9-0.4,2.8-0.8C257.3,101.4,257.4,101.1,257.2,101z M246.9,84.6
				c0,0,0,0.1,0,0.1l0,0c-0.3-0.1-0.6,0-0.9,0.1c-0.1,0-0.3,0-0.4,0c0,0,0,0,0,0L246.9,84.6z M40.8,112.3c-0.2,0-0.3,0-0.5,0
				c0.4-0.4,0.7-0.7,1.1-0.9c0.3,0.1,0.6,0.2,0.8,0.2c0.3,0,0.6,0,0.9,0.1C42.3,112,41.6,112.2,40.8,112.3z M102.4,87.1
				c0-0.1-0.1-0.1-0.2-0.2c-0.2-0.1-0.4-0.1-0.6-0.1c0.8-0.2,1.5-0.4,2.3-0.6l0,0c0.5,0,1,0,1.5,0L102.4,87.1z M245.7,62.1
				c0,0,0.1,0,0.1-0.1c0,0.1-0.1,0.3-0.1,0.4c-0.4,0.1-0.9,0.1-1.3,0.1C244.9,62.4,245.3,62.2,245.7,62.1z M244.5,64.2
				c0,0.1-0.1,0.1-0.1,0.2c-0.3,0-0.6,0-1,0C243.8,64.4,244.2,64.3,244.5,64.2z M219.9,63.4l-0.6,0.1l-0.9,0L219.9,63.4z
				 M215.4,64.4l0.9-0.1l-0.9,0.2C215.3,64.5,215.4,64.5,215.4,64.4z M203.3,67.4c1.9-0.5,3.8-0.9,5.7-1.4l2.6-0.4l-1.2,0.4
				l-7.2,1.5L203.3,67.4z M186.5,69.4l2.1-0.3l9.1-1.4l-0.5,0.1l-6.3,1.2c-2.1,0.4-4.2,0.8-6.3,1.3c0-0.2-0.1-0.4-0.2-0.5
				L186.5,69.4z M136.3,82.1c1.4-0.3,2.9-0.6,4.3-0.9l-2.7,0.8c-1.6,0.3-3.2,0.6-4.8,0.9C134.1,82.6,135.2,82.3,136.3,82.1z
				 M176.5,114.6l-4.9,0.8c-5.4,0.8-10.7,1.8-16.1,2.8c-2.7,0.4-5.3,1-8,1.5l-8,1.5l-8,1.6c-2.7,0.5-5.3,1.1-8,1.7
				c-5.3,1.2-10.7,2.3-16,3.5l3.5-1.2l1.8-0.6l1.8-0.6c3.6-0.8,7.1-1.5,10.7-2.3c3.6-0.8,7.1-1.5,10.7-2.3c3.9-0.8,7.8-1.4,11.6-2.1
				c1.9-0.3,3.9-0.7,5.8-1l5.8-0.9c3.7-0.6,7.3-1.2,11-1.6l5.5-0.8c1.8-0.2,3.7-0.5,5.5-0.7C179.8,114.1,178.2,114.4,176.5,114.6z
				 M237.6,83.9c-0.2,0-0.4,0.2-0.4,0.3l-1,0.1c0.4-0.1,0.8-0.3,1.2-0.4c0,0,0.1,0,0.1-0.1c0.4-0.1,0.9-0.1,1.3-0.2L237.6,83.9z"/>
			<path class="st0" d="M255.8,99.6C255.8,99.6,255.7,99.6,255.8,99.6C255.7,99.7,255.8,99.7,255.8,99.6z"/>
			<path class="st0" d="M242.6,108c-0.1,0,0,0.1,0,0.1c2.3-0.2,4.6-0.5,6.8-0.9c0,0,0-0.1,0-0.1C247.2,107.1,244.9,107.5,242.6,108z
				"/>
			<path class="st0" d="M249.1,85.3c-0.3-0.2-0.8-0.4-1.1-0.1c-0.1,0-0.1,0.2,0,0.2c0.2,0.1,0.3,0,0.5,0c0.2,0,0.4,0.1,0.5,0.1l0,0
				C249.1,85.5,249.1,85.3,249.1,85.3z"/>
		</g>
		<g>
			<path class="st1" d="M87.5,52.7c2-0.3,4-0.7,6-1.2l1.5-0.4l1.5-0.4c1-0.2,2-0.5,3-0.7c3.8-0.9,7.6-1.7,11.3-2.9
				c0.4-0.1,0.2-0.8-0.2-0.7c-4,0.6-8.1,1.6-12,2.5c-3.8,0.8-7.7,1.7-11.3,3.1C86.8,52.2,87,52.8,87.5,52.7z M9,103.8
				c-0.3,0.1-0.6,0.2-0.9,0.3c-0.6,0.2-1.2,0.4-1.8,0.5c-0.1,0-0.1-0.1-0.1-0.2c0.5-0.2,1-0.4,1.6-0.6c-0.1,0-0.2-0.2,0-0.2
				c0.8-0.2,1.4-0.6,2.1-0.9c0.1,0,0.1,0.1,0.1,0.1c-0.1,0.1-0.2,0.2-0.2,0.2c0,0.2-0.2,0.5-0.4,0.4c0.1,0.1,0,0.2-0.1,0.2
				C9.2,103.7,9.1,103.7,9,103.8C9.1,103.8,9.1,103.8,9,103.8z M7.3,101.3c-0.4,0.1-0.7,0.2-1.1,0.2c-0.1,0-0.2-0.2,0-0.2
				c0.3-0.1,0.5-0.2,0.8-0.2c0,0,0-0.1,0.1-0.1c0.1,0,0.2,0,0.2,0C7.5,101,7.5,101.2,7.3,101.3z M69.9,56.6c-0.2,0.1,0,0.4,0.1,0.4
				c2.7,0.1,5.7-1.2,8.3-1.8c2.7-0.6,5.4-1.2,8.1-1.7c-2.9,0.8-5.9,1.6-8.8,2.4l-8.8,2.7L64.4,60c-1.5,0.5-2.9,0.9-4.4,1.4l-8.7,2.9
				c0-0.1-0.1-0.1-0.2-0.1l-2.8,1.1c-1.5,0.5-3.1,1-4.6,1.6l-4.6,1.7C36,69.8,33,71,29.9,72.2c-0.7,0.2-1.3,0.5-2,0.7l-2,0.8
				c-4.1,1.6-8.1,3.2-12.1,5c-2,0.8-4,1.7-6.1,2.7c-2,1-4,2.1-5.6,3.5C2,85,2.1,85.3,2.3,85.2c1.9-0.6,3.6-1.6,5.4-2.5
				c2.2-1.1,4.5-2.2,6.8-3.1c4.1-1.7,8.3-3.3,12.5-5c0.7-0.3,1.5-0.6,2.2-0.8c4.6-1.5,9.3-3.1,13.9-4.7c2.3-0.8,4.6-1.5,7-2.3l7-2.2
				c-3.7,1.5-7.3,3-10.9,4.5c-1.1,0.5-2.3,1-3.4,1.4c-0.1-0.1-0.2-0.1-0.3-0.1c-3.5,1-6.9,2.7-10.3,4.1c-1.1,0.5-2.2,0.9-3.3,1.4
				l-12.3,4.9l-3.1,1.3c-1,0.4-2,0.9-3,1.3c-2,0.9-4,1.8-6,2.8C4,86.4,4,86.7,4.2,86.8C3.1,87.4,2,88,1.1,88.8
				C1,88.9,1,89.1,1.2,89.1C2,89,2.7,88.8,3.5,88.5c0.1,0.1,0.2,0.1,0.4,0c1.4-0.4,2.8-0.9,4.1-1.4c-1.2,0.6-2.4,1.2-3.5,2
				c-0.1,0-0.1,0.1-0.1,0.2l-0.5,0.2l0,0c0,0,0,0,0,0l-0.2,0.1c-0.1,0-0.1,0.3,0,0.3c0.2,0,0.3,0,0.5-0.1c0,0,0,0,0.1,0.1l0,0
				c0.1,0,0.2,0,0.2-0.1c0,0,0,0,0-0.1c0.1,0,0.2,0,0.2,0c1.4-0.6,2.8-1.3,4.3-1.9c0.5-0.1,1.1-0.2,1.6-0.4
				c-0.3,0.1-0.6,0.3-0.9,0.4c0,0,0,0.1,0,0.1l-0.8,0.3c-0.4,0.1-0.4,0.6-0.2,0.8c0,0-0.1,0-0.1,0c-0.1,0.1-0.1,0.3,0,0.3l0,0
				c-0.1,0.1-0.1,0.2-0.1,0.4c-0.4,0.1-0.8,0.3-1.2,0.5c-0.1,0.1,0,0.3,0.1,0.2c0.4-0.1,0.9-0.3,1.3-0.4c0.1,0.1,0.2,0.1,0.3,0
				c0.7-0.3,1.3-0.5,1.9-0.8L9.9,90c-0.2,0.1-0.3,0.3-0.2,0.5l-0.5,0.2c-1.4,0.4-2.7,0.9-4.1,1.5c-0.1,0-0.1,0.1,0,0.2
				c-0.8,0.4-1.7,0.8-2.5,1.2c-0.2,0.1-0.2,0.4,0,0.5c-0.9,0.3-2,0.7-2.4,1.4c-0.1,0.2,0,0.5,0.2,0.6l0,0c-0.1,0-0.2,0.1-0.2,0.2
				l0,0c0,0,0,0,0,0.1C0,96.4,0,96.5,0,96.6c0,0.1,0.1,0.1,0.2,0.1l0.1,0c0,0,0,0,0-0.1l0,0c0.2,0,0.4-0.1,0.4-0.1
				c0.1,0,0.1-0.1,0.1-0.2c0.9-0.3,1.8-0.6,2.7-1c2.5-0.8,4.9-1.5,7.3-2.6c0.8-0.4,1.6-0.7,2.4-1.1c0.2,0.4,0.5,0.8,1,0.7
				c-1.5,0.6-2.9,1.3-4.3,2c-0.8,0.4-0.2,1.5,0.5,1.5c-1.7,0.8-3.4,1.7-4.7,3c-0.1,0.1,0,0.3,0.2,0.3c3-0.8,5.8-2.5,8.8-3.7
				c0,0,0.1,0,0.1,0c0.1,0,0.2-0.1,0.3-0.1c0.8-0.2,1.7-0.5,2.5-0.7c-1.2,0.5-2.3,1-3.5,1.5c-0.4,0.2-0.2,0.8,0.2,0.7l2.1-0.6
				c-0.1,0.1-0.1,0.3-0.1,0.4l-0.8,0.3c-0.1-0.1-0.1-0.1-0.2-0.1c-0.8,0.4-1.7,0.8-2.5,1.2c-0.2,0.1-0.3,0.3-0.2,0.5
				c-1.4,0.5-2.9,1.1-4.3,1.7c-0.4,0.2-0.2,0.8,0.2,0.7c3.9-1.1,7.7-2.4,11.4-3.7c0,0,0,0,0.1,0c0.2,0,0.5,0,0.7,0
				c0,0-0.1,0.1-0.1,0.1c0,0,0,0.1,0,0.1c-0.1,0.1-0.2,0.2-0.1,0.3l0,0c0,0-0.1-0.1-0.1,0c-0.1,0-0.2,0.1-0.2,0.1
				c-0.1,0-0.2,0.1-0.3,0.1c-0.1,0-0.1,0.1-0.1,0.1c-0.3,0.2-0.6,0.3-0.9,0.5c-0.5,0.2-0.9,0.3-1.4,0.6c-0.1,0,0,0.2,0.1,0.2
				c0.7-0.1,1.4-0.4,2-0.7c0,0,0,0.1,0,0.1c-0.1,0-0.1,0-0.2,0c-0.5,0.3-1.1,0.8-1.6,0.8c-0.1,0-0.1,0.1-0.1,0.2
				c0.1,0.1-0.9,0.3-0.9,0.3c-0.1,0-0.1,0.2,0,0.2c0.3,0,0.6-0.1,1-0.2c-1.7,0.8-3.4,1.6-5.3,2c-0.2,0.1-0.3,0.2-0.2,0.4l-0.2,0
				c0-0.1,0-0.3-0.1-0.4c0-0.1-0.1,0-0.1,0c0,0.2-0.1,0.3-0.2,0.4c-0.1,0-0.1,0.1-0.1,0.2c-0.1,0-0.2,0.1-0.3,0.1
				c-0.1,0.1,0,0.3,0.1,0.3c0,0,0.1,0.1,0.1,0.1c0.5-0.1,0.9-0.2,1.4-0.4c0.4,0,0.8-0.2,1.3-0.4l0,0l0,0l0,0c0,0,0,0,0.1,0
				c1.8-0.5,3.5-1.1,5.2-1.8c0.1,0.1,0.3,0.1,0.5,0l0.2-0.1c0.1,0,0.1,0,0.2,0c0.1,0,0.2-0.1,0.4-0.2l1.7-0.6c0,0.3,0.2,0.6,0.6,0.5
				c0.5-0.1,0.9-0.2,1.4-0.3c-0.1,0.1,0,0.2,0,0.2c-0.5,0.2-1,0.3-1.6,0.5c-0.1,0-0.1,0.2,0.1,0.2l0.4-0.1l-0.6,0.3l0,0l0,0
				c-0.8,0.4-1.6,0.8-2.5,1.2c-0.3,0.1-0.1,0.6,0.2,0.6l0.3-0.1c-0.3,0.2-0.6,0.3-1,0.5c-0.8,0.5-1.5,0.6-2,1.4c0,0,0,0,0,0
				l-0.2,0.2c0,0-0.1,0.1-0.1,0.1l-0.3,0.1l0,0c-0.1,0.1-0.1,0.3,0.1,0.2c0.1,0,0.2-0.1,0.3-0.1c0,0,0.1,0,0.1,0
				c0.7-0.1,1.3-0.2,1.9-0.4c-1.2,0.5-2.3,1.1-3.4,1.7c0,0-0.1,0-0.1,0c-0.4,0.2-0.8,0.6-1.1,0.8c-0.1,0.1-0.3,0.2-0.4,0.3
				c-0.2,0.1-0.3,0.2-0.5,0.3c-0.1,0-0.1,0.2-0.1,0.3c0,0.1-0.1,0.1,0,0.2l-0.1,0c-0.1,0-0.1,0.2-0.1,0.3c-0.4,0.2-0.7,0.3-1.1,0.4
				c-0.2,0-0.1,0.3,0.1,0.3c0.1,0,0.1,0,0.2,0c0.6-0.1,1.1-0.3,1.7-0.6c0.3-0.1,0.5-0.1,0.8-0.2c0.1,0,0.1-0.1,0.1-0.1
				c2.3-0.5,4.7-1.9,6.7-3l2.8-1.4c2-0.7,4-1.7,5.9-2.6l7.1-3c3.8-1.6,7.7-3.1,11.5-4.6c0.3,0,0.5,0,0.8,0.1
				c0.1,0.1,0.2,0.2,0.3,0.3c-1.6,0.5-3.2,0.9-4.6,1.7c0,0,0,0-0.1,0c-0.3,0.1-0.3,0.1-0.5,0.3c-0.2,0.2,0,0.5,0.2,0.5
				c0.1,0,0.3,0,0.4,0l-5.3,2.1c-0.9,0.4-1.8,0.7-2.6,1.1l-2.6,1.1c-3.5,1.5-7,3.1-10.4,4.6c-0.5,0.2-0.2,1,0.3,0.8l8-3.1l4-1.6
				c0.7-0.3,1.3-0.5,2-0.8l2-0.7l8.1-2.9c2.7-1,5.4-2,8.1-2.9c2.5-0.8,4.9-1.7,7.4-2.5l3.7-1.3c1.2-0.4,2.5-0.9,3.7-1.3
				c0.5,0.4,0.3,0.9-0.3,1.3c-0.6,0.4-1.4,0.6-2.1,0.8c-0.7,0.2-1.2,0.5-1.9,0.9c0,0,0,0-0.1,0.1c-1.1,0.3-2.2,0.6-3.3,0.9
				c-3.2,0.8-6.4,1.6-9.6,2.6c-3.1,1-6.3,2.1-9.3,3.3c-2.1,0.9-4.2,1.8-6.3,2.6c-4.5,1.5-9,3-13.3,4.9c-0.6,0.2-1.1,0.3-1.7,0.4
				c-0.3,0.1-0.3,0.3-0.2,0.5c-1,0.5-2,1-2.9,1.6c0-0.1-0.1-0.1-0.2-0.1l-0.6,0.2c-0.1,0-0.1,0.2,0,0.3c-0.3,0.1-0.5,0.1-0.8,0.2
				c-0.1,0-0.1,0.1,0,0.2l-0.2,0.1c-0.1,0,0,0.2,0,0.2c0,0-0.1,0.1-0.1,0.1c0,0,0,0.1,0,0.2c0,0,0,0,0,0c-0.6,0.3-1.1,0.5-1.7,0.8
				c-0.3,0.1-0.6,0.2-0.7,0.5c0,0.1,0,0.2,0,0.2l0,0c0.1,0,0.1,0.1,0.2,0c0.2-0.1,0.4-0.2,0.5-0.3c0.2-0.1,0.3-0.2,0.4-0.2l1-0.5
				c0,0.1,0,0.1,0.1,0.1l1.1-0.4c0.1,0,0.2,0,0.4,0c1.3-0.6,2.7-1.2,4-1.7c0.6-0.1,1.1-0.4,1.7-0.7c2.9-1.1,5.8-2.2,8.7-3.3
				c1.5-0.5,2.9-1,4.4-1.5c1.5-0.5,3-0.9,4.5-1.4c3.9-1.1,7.8-2.3,11.6-3.6c3-1,6.6-1.9,9.3-3.8c1.9-0.5,3.7-1,5.6-1.5l1.4-0.4
				l1.4-0.4l2.8-0.8c3.7-1.1,7.3-2.2,11-3.4c1.1-0.2,2.2-0.3,3.2-0.5l-2.2,0.6l-2.2,0.7c-1.4,0.4-2.9,0.9-4.3,1.3
				c0-0.1-0.1-0.1-0.1-0.1c-0.3,0.2-0.8,0.3-1.2,0.5L79,91.6c-0.2,0.1-0.1,0.3,0.1,0.3c0.3-0.1,0.6-0.2,0.9-0.3c0.1,0,0.3,0,0.5,0
				c0.7,0,1.4-0.3,2-0.5c0.8-0.2,1.5-0.4,2.3-0.6l-0.1,0c-2.9,0.9-5.9,1.8-8.8,2.6c-1.5,0.4-3,0.8-4.4,1.2c-1.5,0.4-2.9,0.9-4.4,1.3
				c-0.1,0-0.1,0.2,0,0.2c1.5-0.3,3-0.6,4.5-1c1.5-0.4,3-0.7,4.5-1.2c3-0.8,6-1.8,8.9-2.7c0.6-0.2,1.2-0.4,1.8-0.6l-0.1,0
				c-3,1-6.1,2-9.1,2.9L73,94.7c-1.6,0.5-3.1,1-4.6,1.4c-3.1,1-6.2,1.9-9.3,2.8c-3.1,0.9-6.2,1.8-9.3,2.8c-3.1,0.9-6.2,1.9-9.3,2.9
				c-3.4,1.2-6.8,2.7-10.1,4.2c-2.1,0.9-4.2,1.8-6.3,2.7c-1.7,0.7-3.3,1.4-5,2.1c-0.1,0,0,0.1,0,0.1c0.5-0.1,1-0.3,1.5-0.5
				c-0.2,0.2,0.1,0.5,0.3,0.4c1.6-0.3,3.2-0.9,4.7-1.5c1.5-0.6,3.1-1.3,4.5-1.9c2.9-1.3,5.8-2.6,8.8-3.7c1.5-0.6,3.1-1.1,4.7-1.6
				c1.6-0.5,3.1-1,4.7-1.5c3.1-0.9,6.3-1.9,9.4-2.8c1.6-0.5,3.3-1,4.9-1.5l-3.6,1.5c-1.2,0.5-2.4,1-3.6,1.5c-2.4,1-4.8,2.1-7.2,3
				c-2.4,1-4.8,1.8-7.3,2.6c-2.4,0.8-4.9,1.6-7.5,2.2c-0.2,0-0.1,0.3,0.1,0.2c2.3-0.5,4.6-1.1,6.8-1.9c2.2-0.7,4.5-1.4,6.7-2.3
				l-0.8,0.3l-5.2,2.3l-5.2,2.4c-1.7,0.5-3.4,1.2-5.1,1.9c-1.3,0.5-2.7,1-4,1.5c-0.5,0.2-1,0.3-1.6,0.5c-3.4,1.2-6.9,2.4-10.1,4.1
				c-0.8,0.3-1.7,0.6-2.5,1c-0.1,0-0.1,0.1,0,0.1l0,0c-0.1,0,0,0.2,0.1,0.2c0.4-0.2,0.7-0.3,1.1-0.5c-0.1,0.2,0.2,0.6,0.5,0.5
				c2.3-0.7,4.5-1.5,6.7-2.4c-0.4,0.2-0.7,0.5-1,0.7c-0.1,0.1-0.1,0.2-0.1,0.2c-0.7,0.3-1.3,0.6-1.9,0.9c-0.1,0,0,0.2,0.1,0.2
				c0.7-0.2,1.3-0.5,2-0.8c0.1,0.1,0.2,0.2,0.3,0.1c0.7-0.1,1.4-0.3,2-0.6c0.1,0.2,0.3,0.4,0.5,0.4c-0.1,0.2,0,0.4,0.2,0.5
				c-0.4,0.3-0.7,0.5-1,0.9c-0.1,0.1-0.1,0.2-0.1,0.4c-0.5,0.3-0.9,0.5-1.3,0.8c-0.1,0.1-0.1,0.3,0.1,0.3c0.2,0,0.4,0,0.6-0.1
				l-1.6,0.6c-0.1,0,0,0.2,0.1,0.2c1-0.3,1.9-0.6,2.9-1c1.8-0.4,3.6-1.1,5.3-1.7c2.4-0.8,4.7-1.6,7.1-2.4c1.9-0.7,3.9-1.4,5.8-2.2
				c1.9-0.8,3.8-1.6,5.7-2.4c2.9-0.9,5.8-1.9,8.7-2.9l4.3-1.5l4.3-1.4c1.2-0.4,2.5-0.8,3.7-1.2c0,0,0,0,0,0c2.6-0.9,5.3-1.8,7.9-2.6
				l8.6-2.6l4.3-1.3l2.2-0.7c0.7-0.2,1.4-0.4,2.2-0.6l8.7-2.4l4.3-1.2c0.7-0.2,1.5-0.4,2.2-0.6l2.2-0.6c6.5-1.7,13-3.3,19.4-5.2
				c0.2-0.1,0.1-0.5-0.1-0.4c-1.5,0.2-3,0.5-4.4,0.8l-2.2,0.4c-0.7,0.2-1.5,0.3-2.2,0.5c-2.9,0.7-5.9,1.4-8.8,2.2l-4.4,1.2
				c-1.5,0.4-2.9,0.8-4.3,1.3c-2.9,0.9-5.8,1.7-8.7,2.5l-3.8,1.1l-3.8,1.2l-7.6,2.4l-3.8,1.2c-1.3,0.4-2.5,0.8-3.8,1.3l-7.6,2.6
				c0,0,0-0.1-0.1-0.1c1.7-0.7,3.5-1.4,5.2-2.1l1.5-0.5l4.2-1.3l4.2-1.3l8.4-2.5l2.1-0.6c0.7-0.2,1.4-0.4,2.1-0.6l4.2-1.2l8.4-2.4
				l2.1-0.6c0.7-0.2,1.4-0.4,2.1-0.6l4.2-1.1c2.8-0.8,5.6-1.6,8.4-2.4c0.2-0.1,0.1-0.3-0.1-0.3c-3.8,0.8-7.5,1.7-11.3,2.6
				c1-0.4,2.1-0.7,3.1-1c3.5-1,7-1.9,10.6-2.7c3.6-0.8,7.2-1.4,10.8-2.1c1.8-0.3,3.6-0.7,5.4-1c1.8-0.3,3.6-0.6,5.4-1l6.8-1.3
				L155,82l3.4-0.6c4.5-0.8,9-1.7,13.5-2.5c2.7-0.4,5.4-0.9,8.2-1.1l-5.9,0.9l-2.9,0.4l-2.9,0.5c-3.9,0.7-7.8,1.4-11.6,2.2
				c-1.9,0.4-3.9,0.9-5.8,1.3l-5.8,1.4c-1.9,0.5-3.9,0.9-5.8,1.4c-1.9,0.5-3.8,1.1-5.7,1.7c-0.1,0,0,0.2,0.1,0.2
				c1.7-0.4,3.5-0.8,5.2-1.2l5.2-1.1c3.5-0.8,7-1.6,10.5-2.4c3.5-0.7,7-1.5,10.5-2.2c1.8-0.3,3.5-0.7,5.3-1c1.8-0.3,3.5-0.6,5.3-0.8
				c2.8-0.4,5.6-0.8,8.4-1.2c0.3,0,0.7,0.1,1,0.1c0.3,0,0.4-0.1,0.5-0.3c2.1-0.3,4.2-0.6,6.4-0.9c2.1-0.3,4.2-0.6,6.3-0.9l5.1-0.5
				l17-1.5c5.6-0.4,11.1-0.7,16.7-1.1c4.4-0.2,9.2,0,13.5-1.6c1.1-0.1,2.2,0,3.3-0.2c1.8-0.3,3.6-0.6,5.5-0.6c2.9,0,6.1,0.4,8.8-1
				c0.1-0.1,0-0.3-0.1-0.2c-1.6,0.3-3.1,0.4-4.7,0.5c0.1-0.2,0.1-0.4,0-0.5c1-0.1,1.9-0.2,2.8-0.4c0.4-0.1,0.3-0.7-0.1-0.8
				c-0.8-0.1-1.5-0.1-2.2,0.2c0,0,0,0,0.1-0.1l0.6-0.8c0.1-0.2,0-0.5-0.1-0.6c-0.3-0.2-0.6-0.3-0.9-0.3c0-0.1,0-0.3-0.1-0.4
				c0.8-0.3,1.5-0.7,2.1-1.2c0.2-0.2,0.2-0.8-0.2-0.8c-0.1,0-0.2,0-0.2,0c0,0,0-0.1-0.1-0.1l0.2-0.1c0.8-0.1,1.8-0.1,2.6-0.1
				c0.2,0,0.3-0.3,0.1-0.4c0,0-0.1,0-0.1,0c0.2-0.2,0.1-0.5-0.1-0.8l0.7,0c0.4,0,0.4-0.5,0.1-0.7c-0.5-0.2-0.9-0.2-1.3-0.2
				c0,0,0,0,0-0.1c-0.2-0.9-0.9-1.2-1.7-1.3l0.3,0c0.1,0,0.2-0.1,0.2-0.2l0.7,0c0.2,0,0.3-0.4,0.1-0.4c-0.5-0.1-0.9-0.2-1.4-0.3
				c0-0.1-0.1-0.2-0.2-0.2c-0.1,0-0.1,0-0.2,0l0-0.2c0.1-0.1,0.2-0.2,0.2-0.4c0-0.2,0.1-0.5,0.1-0.7c0.2,0,0.4,0,0.6-0.1
				c0.2-0.1,0.3-0.2,0.5-0.3c0.1,0,0.1,0,0.2,0c0.2,0,0.3-0.1,0.3-0.3l0,0c0.1-0.1,0.1-0.3,0-0.4c-0.2-0.1-0.4-0.2-0.6-0.2
				c-0.2-0.1-0.5-0.2-0.8-0.2c0-0.4-0.4-1-0.7-1.3c-0.5-0.7-1.1-1.2-1.9-1.5l0,0c1.2,0,2.3-0.2,3.5-0.4c0.4-0.1,0.5-0.6,0.2-0.9
				c0.8,0.1,1.7,0,2.4-0.2c0.2-0.1,0.1-0.3-0.1-0.3c-0.1,0-0.2,0-0.3,0.1c0,0,0,0,0,0c-0.1,0-0.3,0.1-0.4,0.1
				c0.1-0.1,0.1-0.3,0.1-0.4c0-0.2-0.2-0.4-0.4-0.4c-0.4,0-0.8,0.1-1.3,0.1c0-0.1,0-0.2-0.1-0.2c-0.1,0-0.3-0.1-0.4-0.1l0.1,0
				c0.1-0.1,0.1-0.2,0-0.3c-0.2,0-0.3-0.1-0.5-0.1c0-0.1-0.1-0.2-0.2-0.3c-0.1-0.6-0.6-1-1-1.4l0.2,0c0.3,0,0.5,0.1,0.8,0
				c0.1,0,0.1-0.2,0-0.2c-0.1,0-0.1,0-0.2-0.1c0.1,0,0.1,0,0.2-0.1c0,0,0,0,0-0.1c0.8,0,1.7-0.1,2.5-0.1c0.3,0,0.5-0.2,0.6-0.5
				l0.4,0c0.1,0,0.1-0.2,0-0.2c-0.1,0-0.2-0.1-0.3-0.1c0,0,0,0,0-0.1c0.1-0.1,0-0.2-0.1-0.2c-0.1,0-0.1,0-0.2,0
				c-0.1-0.1-0.1-0.1-0.2-0.2l-1-0.5l0.2,0c0.7-0.1,0.6-1.1,0-1.3c-2.2-0.8-4.3-1.3-6.5-1.3c1.7-0.1,3.4-0.2,5-0.5
				c0.4,0,0.7-0.1,1.1-0.2c0.1,0,0.1-0.1,0.1-0.2c0.1,0,0.3,0,0.4-0.1c0.1,0,0.1-0.2,0-0.3c-0.2-0.2-0.4-0.4-0.7-0.4
				c-0.1-0.1-0.2-0.2-0.4-0.2c-0.2,0-0.4,0-0.6,0c0-0.2-0.1-0.4-0.2-0.5c0.1,0,0.2,0,0.2,0c0.7,0,0.9-1,0.2-1.3l-1-0.4
				c0.1-0.5,0.1-0.9,0-1.5c0.1-0.1,0.1-0.3-0.1-0.3l-0.1,0c-0.1-0.1-0.3-0.2-0.5-0.3c-0.6,0-1.2,0.1-1.8,0c0,0,0,0,0,0l-0.9,0
				c0,0,0,0-0.1,0c0,0-0.1,0-0.1,0l-1-0.1c1.5,0,4.5,0.1,4.8-1.7c0.1-0.5-0.3-0.9-0.8-0.8l-0.2,0c0,0,0.1-0.1,0.1-0.1
				c0.2-0.1,0.3-0.3,0.3-0.5l0.1,0c0.2,0,0.2-0.2,0.2-0.3l0,0c0.1,0,0.2-0.1,0.1-0.2c0.2,0,0.4-0.1,0.6-0.1c0.2,0,0.1-0.4-0.1-0.3
				l-0.1,0c0,0,0,0-0.1,0c-1.1,0.1-2.2,0.1-3.3,0.1l-0.1,0c0.5-0.2,0.3-0.9-0.2-0.9l-1.5-0.2l0.3,0c0.3,0,0.5-0.2,0.6-0.4
				c0.1,0,0.2-0.2,0.1-0.3c0,0-0.1-0.1-0.1-0.1c0-0.1-0.1-0.1-0.1-0.2c0,0,0.1-0.1,0.1-0.1c0.1,0,0.3,0,0.4,0l0,0l0,0l0,0
				c0.2,0,0.2-0.3,0-0.4c-0.1,0-0.3,0-0.4-0.1c0.1,0,0.1,0,0.2,0c0.1,0,0.1-0.2,0-0.2c-0.8-0.1-1.6,0-2.4,0.1
				c-0.8-0.1-1.7,0.1-2.6,0.1c-1.2,0.1-2.4,0.1-3.6,0.2l-1.8,0.1l-1.8,0.1c-0.1-0.3-0.4-0.5-0.8-0.5l-2.1,0.1c0,0-0.1,0-0.1-0.1
				l0.1,0c1.9-0.1,3.9-0.2,5.9-0.3c2-0.1,3.9-0.3,5.8-0.6c0.1,0,0.2,0,0.3-0.1c0.3,0,0.6,0,0.8,0c0,0,0.1,0,0.1,0
				c0.4,0,1,0.1,1.3-0.2c0.1-0.1,0-0.3-0.1-0.2c-0.3,0.1-0.7,0.1-1.1,0.1c0,0-0.1-0.1-0.1-0.1l-0.3,0c0,0,0,0-0.1-0.1l0,0l0,0
				c0.2,0,0.2-0.3,0-0.3c-0.4-0.1-0.9-0.3-1.3-0.3c0.1-0.4-0.2-0.9-0.7-1l-1.4-0.2c0-0.1,0-0.1-0.1-0.1c-0.3,0-0.5,0-0.7,0l0,0
				c0.1,0,0.2-0.3,0.1-0.3l-0.3-0.1l0.4-0.1c0.1,0,0.1-0.1,0.1-0.2c0.3,0,0.6,0,1-0.1c0.1,0,0.1-0.1,0-0.1c-0.2,0-0.4,0-0.5-0.1
				c0-0.1,0-0.2-0.1-0.2c-0.3,0-0.5,0-0.8,0c0,0-0.1-0.1-0.1-0.1c-0.6,0-1.2-0.1-1.8,0l-0.2,0c0,0,0,0-0.1,0c-0.1,0-0.2,0-0.3,0
				c-0.4,0-0.9-0.1-1.3,0c-0.4,0-0.9,0.1-1.3,0.3c-0.1,0-0.1,0.1-0.1,0.1c-4.4,0.1-8.9,0.6-13.3,1.1l-2.6,0.1l-2.6,0.2
				c-1.7,0.1-3.5,0.3-5.2,0.5c-3.5,0.3-7,0.7-10.4,1.2c-0.2,0-0.2,0.4,0,0.3c3.3-0.4,6.6-0.8,9.9-1.1l-7.8,1
				c-0.5,0.1-0.9,0.1-1.4,0.2c-0.5,0.1-0.9,0.1-1.4,0.2c-0.9,0.1-1.9,0.2-2.9,0.4c-1.9,0.3-3.8,0.6-5.6,1c-0.2,0-0.1,0.3,0.1,0.3
				c1.9,0,3.9-0.2,5.8-0.5c1.9-0.3,3.9-0.6,5.8-0.8c4-0.4,8-0.8,12-1.3c0.8-0.1,1.6-0.2,2.4-0.3c0.8-0.1,1.6-0.2,2.4-0.2
				c1.6-0.1,3.3-0.2,4.9-0.4c3.3-0.3,6.5-0.6,9.8-1l0.7,0c0,0.1,0,0.3,0.1,0.4c-2.3,0.1-4.6,0.2-6.9,0.5c-0.4,0-0.6,0.4-0.6,0.7
				l-2.6,0.3c-1.9,0.1-3.8,0.2-5.8,0.2c-0.2,0-0.3,0.3-0.2,0.4c-1.2,0.1-2.3,0.3-3.5,0.4c-2.9,0.3-5.8,0.6-8.7,0.9
				c-2.9,0.3-5.9,0.3-8.7,0.9c-0.3,0.1-0.2,0.5,0.1,0.5c0.8,0,1.5,0,2.3,0l-0.9,0.1c-0.4,0.1-0.5,0.4-0.5,0.6l-2,0.4l-7.2,0.4
				l-3.6,0.2c-1.2,0.1-2.4,0.1-3.6,0.3l-10.9,1l-5.4,0.5l-5.4,0.6l-10.8,1.3l-1.4,0.2l-1.4,0.2l-2.7,0.4l-5.4,0.8
				c-2.7,0.4-5.5,0.8-8.2,1.3L138,42l-8.2,1.5c-2.7,0.5-5.5,1.1-8.2,1.7c1.1-0.3,2.2-0.6,3.3-0.8c1.3-0.3,2.6-0.5,3.8-0.8
				c1.3-0.3,2.6-0.5,3.8-0.8c0.5-0.1,0.4-0.8-0.1-0.8c-1.4,0-2.7,0.1-4.1,0.3c-1.4,0.2-2.7,0.5-4,0.8c-2.4,0.5-5.1,0.9-7.3,2.1
				c-0.3,0.2-0.2,0.6,0.2,0.6c0.8,0,1.5-0.1,2.3-0.3c-2.7,0.6-5.4,1.1-8.1,1.7l-8,1.9l-8,1.9c-2.7,0.7-5.3,1.4-8,2.1
				c0-0.1,0-0.3-0.2-0.3c-3.1,0.1-6.1,0.4-9.2,0.9C75.4,54.5,72,55,69.9,56.6z M54.8,109.9l-1.6,0.6l0.6-0.3L54.8,109.9z
				 M58.1,108.3l-0.9,0.3l1-0.5C58.1,108.2,58.1,108.2,58.1,108.3z M187.4,76.5c0.2,0.1,0.4,0.1,0.6,0.2c-0.9,0.1-1.8,0.3-2.7,0.4
				l0,0c-0.6-0.1-1.1-0.1-1.6-0.1l3.6-0.6C187.3,76.4,187.3,76.5,187.4,76.5z M24.9,120c0-0.1,0-0.3-0.1-0.4
				c0.5-0.2,0.9-0.4,1.4-0.6c-0.4,0.3-0.8,0.6-1.2,0.9C24.9,119.9,24.9,119.9,24.9,120z M62.2,106.2l1.3-0.6l7.9-3.1l-0.2,0.1
				c-2.1,0.9-4.2,1.8-6.2,2.7L62.2,106.2z M92.4,96.5L90,97.2l-2.3,0.7L77.6,101l0.5-0.2l7-2.4c2.3-0.8,4.7-1.6,7-2.4
				C92.1,96.2,92.2,96.4,92.4,96.5z M26.8,116.9c-0.4,0.2-0.7,0.4-1.1,0.6c0-0.1,0-0.1,0.1-0.2L26.8,116.9z M117,86
				c-1.3,0.5-2.7,1-4,1.5C114.3,87,115.6,86.6,117,86z M151.5,79.3c-1.3,0.3-2.5,0.5-3.8,0.8c-1.7,0.3-3.4,0.7-5.1,1l3.2-0.8
				C147.7,79.9,149.6,79.6,151.5,79.3z M263.5,64.3c0.2,0,0.3,0.1,0.5,0.1c-0.5,0.2-1,0.4-1.5,0.5c-0.3-0.2-0.6-0.3-0.8-0.4
				c-0.3-0.1-0.6-0.2-0.9-0.3C261.6,64.2,262.5,64.2,263.5,64.3z M71.8,96.9l-0.7,0.3c-0.2,0.1-0.1,0.4,0.1,0.3l0.9-0.3
				c-0.7,0.3-1.4,0.7-2,1.1c0,0,0-0.1,0-0.1c0.1-0.1,0.2-0.3,0.4-0.4c0.1-0.2,0-0.4-0.2-0.4l-0.1,0C70.7,97.2,71.3,97,71.8,96.9z
				 M76,95.1l-2.5,1l-0.7,0.1c-0.9,0.2-1.7,0.4-2.5,0.7l0.6-0.3C72.6,96.1,74.3,95.6,76,95.1z M96.8,86.1L96.8,86.1
				c-0.5,0.3-1,0.5-1.5,0.7c-0.1-0.1-0.2-0.1-0.3-0.1L93.5,87l2.4-0.6c0.2-0.1,0.3-0.4,0.2-0.6l0.6-0.2C96.7,85.8,96.7,86,96.8,86.1
				z M19.9,110.9L19.9,110.9c-0.1,0-0.1,0-0.2,0c-0.3,0-0.1-0.1,0.2-0.2C19.8,110.8,19.8,110.8,19.9,110.9z M29.1,97
				c0,0-0.1,0.1-0.1,0.1c-0.5,0.2-1,0.4-1.5,0.6l1.3-0.6c0.2-0.1,0.4-0.3,0.4-0.5l1.2-0.5C30,96.5,29.5,96.7,29.1,97z M19.2,99.1
				C19.2,99.1,19.2,99.1,19.2,99.1l-1.4,0.7c0,0,0-0.1,0-0.1l0,0c0.4,0,0.6-0.2,1-0.4C18.9,99.2,19,99.2,19.2,99.1z M106.1,51.1
				c6.8-1.7,13.7-3,20.6-4.5c3.4-0.7,6.9-1.3,10.3-2l10.3-1.8l10.4-1.6c3.5-0.5,6.9-1.1,10.4-1.5c6.9-0.9,13.9-1.8,20.9-2.4
				l-4.7,0.8l-2.3,0.4l-2.3,0.5c-4.6,0.6-9.3,1.2-13.9,1.8c-1.2,0.1-2.3,0.3-3.5,0.5l-3.5,0.5l-6.9,1.1l-3.8,0.5
				c-1.3,0.2-2.5,0.4-3.7,0.6l-7.5,1.3c-2.5,0.4-5,0.8-7.5,1.3l-7.5,1.4l-7,1.4l-1.8,0.3c-0.6,0.1-1.2,0.3-1.8,0.4l-3.5,0.8l-7,1.5
				l-3.5,0.8l-1.8,0.4l-1.7,0.4c2-0.6,4.1-1,6.2-1.5L106.1,51.1z M16.4,99.7c-0.2,0.3-0.9,0.4-1.3,0.3c-0.1,0-0.1-0.2,0-0.2l0,0
				c0.2-0.1,0.4-0.1,0.7-0.1c0.2-0.1,0.4-0.2,0.6-0.2C16.4,99.6,16.5,99.7,16.4,99.7z M17.3,76.9c-2.7,1.3-5.5,2.5-8.3,3.5
				c-0.1,0-0.1-0.1,0-0.1c2.6-1.4,5.5-2.4,8.3-3.5C17.3,76.8,17.3,76.9,17.3,76.9z M40.9,116.5c-3.3,1.4-6.7,2.5-10,3.6
				c-0.1,0-0.2-0.1-0.1-0.2c3.3-1.3,6.7-2.6,10-3.6C40.9,116.3,41,116.4,40.9,116.5z M3.3,89.8C3.3,89.8,3.3,89.7,3.3,89.8
				C3.4,89.8,3.3,89.8,3.3,89.8z"/>
		</g>
		<g>
			<path class="st2" d="M154.3,47c-2.6,0-5.1,0.6-7.7,1c-2.4,0.4-4.8,0.8-7.2,1.5c-0.3,0.1-0.1,0.7,0.2,0.6c2.6-0.1,5.1-0.7,7.6-1.1
				c2.4-0.4,4.9-0.7,7.2-1.4C154.7,47.5,154.6,47,154.3,47z M209.7,19.1c0.2,0,0.4,0,0.6,0c0.4,0,0.8,0,1.2,0.1c0.1,0,0.1,0.1,0,0.1
				c-0.4,0-0.7,0.1-1.1,0c0.1,0,0.1,0.2,0,0.2c-0.5,0-1,0.1-1.5,0.2c-0.1,0-0.1-0.1,0-0.1c0.1,0,0.1-0.1,0.2-0.1
				c0-0.2,0.3-0.4,0.3-0.2c0-0.1,0-0.2,0.1-0.2C209.6,19.1,209.6,19.1,209.7,19.1C209.7,19.1,209.7,19.1,209.7,19.1z M210.3,21.7
				c0.2,0,0.5,0,0.7,0.1c0.1,0,0.1,0.2,0,0.2c-0.2,0-0.4,0-0.6,0c0,0,0,0.1-0.1,0.1c-0.1,0-0.1,0-0.1-0.1
				C210.2,21.9,210.2,21.7,210.3,21.7z M165.6,45.9c0.1-0.1,0-0.3-0.1-0.4c-1.7-0.5-3.7,0.2-5.3,0.3c-1.7,0.2-3.4,0.4-5.2,0.5l5.7-1
				l5.7-1c1.9-0.3,3.8-0.7,5.7-1l5.7-0.9c0,0.1,0.1,0.1,0.1,0.1l1.8-0.4c1-0.2,2-0.3,3-0.5l3-0.5c2-0.3,4.1-0.7,6.1-1
				c0.9-0.1,1.8-0.3,2.7-0.4c2.7-0.4,5.4-0.7,8.2-1.2c1.3-0.2,2.7-0.4,4.1-0.6c1.4-0.3,2.8-0.7,4-1.3c0.1-0.1,0.1-0.3,0-0.3
				c-1.2,0-2.5,0.4-3.7,0.6c-1.5,0.3-3.1,0.5-4.7,0.8c-2.8,0.5-5.6,0.8-8.4,1.1c-0.5,0.1-1,0.1-1.5,0.2c-3.1,0.3-6.1,0.7-9.2,1
				c-1.5,0.2-3.1,0.4-4.6,0.6l-4.6,0.7c2.4-0.6,4.8-1.2,7.3-1.8c0.8-0.2,1.5-0.3,2.3-0.5c0,0.1,0.1,0.1,0.2,0.1
				c2.3-0.1,4.6-0.8,6.9-1.3c0.8-0.2,1.5-0.3,2.3-0.5l8.4-1.1l2.1-0.3l2.1-0.3c1.4-0.2,2.8-0.4,4.2-0.6c0.2,0,0.2-0.3,0.2-0.5
				c0.8-0.2,1.5-0.4,2.2-0.7c0.1-0.1,0.1-0.3,0-0.3c-0.5-0.1-1-0.1-1.5-0.1c-0.1-0.1-0.1-0.1-0.2-0.1c-0.9-0.1-1.9,0-2.8,0
				c0.8-0.2,1.7-0.4,2.5-0.7c0.1,0,0.1-0.1,0.1-0.1l0.4-0.1l0,0c0,0,0,0,0,0l0.1,0c0.1,0,0.1-0.2,0-0.2c-0.1,0-0.2-0.1-0.3-0.1
				c0,0,0,0,0-0.1l0,0c0-0.1-0.1-0.1-0.2,0c0,0,0,0,0,0c0-0.1-0.1-0.1-0.2-0.1c-1,0.2-2,0.3-3,0.4c-0.3-0.1-0.7-0.1-1.1-0.1
				c0.2,0,0.4-0.1,0.6-0.1c0,0,0,0,0-0.1l0.6,0c0.3,0,0.3-0.3,0.3-0.6c0,0,0.1,0,0.1,0c0.1,0,0.1-0.2,0-0.2l0,0
				c0.1-0.1,0.1-0.2,0.1-0.3c0.3,0,0.6,0,0.8-0.1c0.1,0,0.1-0.2,0-0.2c-0.3,0-0.6,0-0.9,0c0-0.1-0.1-0.1-0.2-0.1
				c-0.4,0-0.9,0.1-1.3,0.1l0.8-0.2c0.1,0,0.2-0.2,0.2-0.4l0.4,0c0.9,0,1.9,0,2.8-0.1c0.1,0,0.1-0.1,0.1-0.1
				c0.6-0.1,1.2-0.2,1.8-0.3c0.2,0,0.2-0.3,0.1-0.4c0.6,0,1.4,0,1.8-0.5c0.1-0.1,0.1-0.4,0-0.6l0,0c0.1,0,0.1,0,0.2-0.1l0,0
				c0,0,0,0,0,0c0,0,0.1-0.1,0.1-0.2c0-0.1,0-0.1-0.1-0.1l0,0c0,0,0,0,0,0l0,0c-0.1,0-0.3,0-0.2,0c-0.1,0-0.1,0.1-0.1,0.1
				c-0.6,0-1.2,0-1.9,0.1c-1.7,0-3.4-0.1-5.1,0.1c-0.6,0.1-1.1,0.2-1.7,0.2c0-0.4-0.2-0.8-0.5-0.9c1-0.1,2.1-0.3,3.1-0.5
				c0.5-0.2,0.4-1.1-0.1-1.3c1.2-0.2,2.4-0.5,3.5-1.2c0.1-0.1,0-0.3-0.1-0.3c-2.1-0.1-4.2,0.5-6.2,0.7c0,0,0,0-0.1,0
				c-0.1,0-0.1,0-0.2,0c-0.6-0.1-1.2-0.1-1.7-0.1c0.8-0.1,1.6-0.2,2.5-0.3c0.3,0,0.3-0.6,0-0.6l-1.4-0.1c0.1-0.1,0.1-0.2,0.1-0.3
				l0.6-0.1c0,0.1,0.1,0.1,0.1,0.1c0.6-0.1,1.2-0.2,1.8-0.3c0.1,0,0.2-0.2,0.2-0.3c1-0.1,2-0.2,3-0.3c0.3,0,0.3-0.6,0-0.6
				c-2.7-0.2-5.3-0.1-8,0c0,0,0,0,0,0c-0.1-0.1-0.3-0.1-0.4-0.2c0,0,0.1,0,0.1-0.1c0,0,0-0.1,0-0.1c0.1,0,0.1-0.1,0.1-0.2l0,0
				c0,0,0,0.1,0.1,0.1c0.1,0,0.1,0,0.2,0c0.1,0,0.1,0,0.2,0c0,0,0.1,0,0.1-0.1c0.2-0.1,0.4-0.1,0.6-0.1c0.3,0,0.7,0,1-0.1
				c0.1,0,0.1-0.2,0-0.2c-0.4-0.1-1-0.1-1.4,0.1c0,0,0-0.1,0-0.1c0,0,0.1,0,0.1,0c0.4-0.1,0.8-0.3,1.2-0.2c0,0,0.1,0,0.1-0.1
				c0-0.1,0.6,0,0.7,0c0.1,0,0.1-0.1,0-0.2c-0.2,0-0.4-0.1-0.7-0.1c1.2-0.2,2.5-0.4,3.8-0.3c0.2,0,0.2-0.1,0.2-0.3l0.2,0
				c0,0.1-0.1,0.2,0,0.3c0,0.1,0.1,0.1,0.1,0c0-0.1,0.1-0.3,0.2-0.3c0.1,0,0.1-0.1,0.1-0.2c0.1,0,0.1,0,0.2,0c0.1,0,0.1-0.2,0-0.2
				c0,0,0-0.1-0.1-0.1c-0.3,0-0.7-0.1-1-0.1c-0.3-0.1-0.6-0.1-0.9,0l0,0l0,0l0,0c0,0,0,0,0,0c-1.2-0.1-2.5,0-3.7,0.1
				c-0.1-0.1-0.2-0.2-0.3-0.2l-0.1,0c0,0-0.1,0-0.1,0c-0.1,0-0.2,0-0.3,0l-1.2,0.1c0.1-0.2-0.1-0.6-0.3-0.6c-0.3,0-0.6,0-0.9-0.1
				c0.1,0,0.1-0.1,0-0.2c0.4,0,0.7,0,1.1,0c0.1,0,0.1-0.2,0-0.2l-0.3,0l0.4-0.1l0,0l0,0c0.6-0.1,1.2-0.3,1.8-0.4
				c0.2,0,0.2-0.5,0-0.5c-0.1,0-0.1,0-0.2,0c0.2-0.1,0.5-0.1,0.7-0.2c0.6-0.2,1.1-0.1,1.6-0.6c0,0,0,0,0,0l0.2-0.1
				c0,0,0.1,0,0.1-0.1l0.2,0l0,0c0.1,0,0.1-0.2,0-0.2c-0.1,0-0.2,0-0.2,0c0,0,0-0.1-0.1-0.1c-0.4-0.1-0.9-0.2-1.3-0.2
				c0.9-0.1,1.7-0.3,2.6-0.5c0,0,0,0.1,0.1,0c0.3-0.1,0.6-0.2,0.9-0.4c0.1,0,0.2-0.1,0.3-0.1c0.1,0,0.3-0.1,0.4-0.1
				c0.1,0,0.1-0.1,0.1-0.2c0,0,0.1-0.1,0.1-0.2c0,0,0.1,0,0.1,0c0.1,0,0.1-0.1,0.1-0.2c0.3,0,0.5,0,0.8,0c0.1,0,0.1-0.2,0-0.2
				c-0.1,0-0.1,0-0.1,0c-0.4-0.1-0.8,0-1.2,0c-0.2,0-0.4,0-0.6-0.1c0,0-0.1,0-0.1,0.1c-1.6-0.2-3.4,0.4-5,0.7
				c-0.7,0.1-1.4,0.3-2.1,0.5c-1.5,0.1-2.9,0.5-4.3,0.7l-5.1,0.9l-8.3,1.5c-0.2-0.1-0.3-0.1-0.5-0.2c-0.1-0.1-0.1-0.2-0.2-0.3
				c1.1-0.1,2.3-0.1,3.3-0.5c0,0,0,0,0,0c0.2,0,0.2,0,0.4-0.2c0.1-0.1,0.1-0.4-0.1-0.5c-0.1,0-0.2,0-0.3-0.1
				c5.1-1,10.2-1.8,15.3-2.8c0.3-0.1,0.3-0.8,0-0.7l-5.9,0.7c-1.9,0.2-3.9,0.4-5.8,0.7l-5.8,0.8c-1.9,0.3-3.9,0.5-5.8,0.8
				c-3.5,0.6-7,1.2-10.6,1.8c-0.3-0.4-0.2-0.8,0.3-1.1c0.4-0.3,1-0.3,1.5-0.4c0.5-0.1,0.9-0.2,1.4-0.5c0,0,0,0,0.1-0.1
				c0.8-0.1,1.6-0.1,2.4-0.2c2.3-0.1,4.5-0.3,6.8-0.5c2.2-0.2,4.5-0.5,6.7-0.9c1.5-0.3,3.1-0.6,4.6-0.9c3.2-0.2,6.5-0.4,9.7-1
				c0.4,0,0.8,0,1.2,0c0.2,0,0.3-0.2,0.2-0.3c0.7-0.2,1.5-0.4,2.2-0.6c0,0.1,0,0.1,0.1,0.1l0.4,0c0.1,0,0.1-0.1,0.1-0.2
				c0.2,0,0.4,0,0.5,0c0.1,0,0.1-0.1,0.1-0.2l0.1,0c0.1,0,0.1-0.1,0-0.2c0,0,0.1,0,0.1-0.1c0,0,0.1-0.1,0-0.1c0,0,0,0,0,0
				c0.4-0.1,0.8-0.1,1.3-0.2c0.2,0,0.4,0,0.6-0.2c0,0,0-0.1,0-0.2l0,0c0-0.1-0.1-0.1-0.1-0.1c-0.1,0-0.3,0.1-0.4,0.1
				c-0.1,0-0.2,0.1-0.3,0.1l-0.8,0.1c0,0,0-0.1-0.1-0.1c-0.3,0-0.5,0-0.8,0.1c-0.1-0.1-0.2-0.1-0.3-0.1c-1,0.1-2,0.3-3,0.4
				c-0.4,0-0.8,0-1.2,0.2c-2.1,0.3-4.2,0.5-6.4,0.7c-1.1,0.1-2.1,0.2-3.2,0.2c-1.1,0.1-2.1,0.2-3.2,0.2c-2.8,0.2-5.6,0.3-8.3,0.7
				c-2.1,0.3-4.7,0.5-6.8,1.6c-1.3,0.1-2.6,0.2-4,0.3c-1.3,0.1-2.6,0.3-3.9,0.5c-2.6,0.4-5.2,0.9-7.8,1.4c-0.8,0-1.5,0-2.3,0.1
				l1.5-0.3l1.5-0.3c1-0.2,2-0.3,3.1-0.5c0,0.1,0,0.1,0.1,0.1c0.2-0.1,0.6-0.2,0.9-0.3l0.8-0.1c0.1,0,0.1-0.3,0-0.2
				c-0.2,0-0.4,0.1-0.6,0.1c-0.1,0-0.2-0.1-0.4-0.1c-0.5-0.1-1,0.1-1.4,0.1c-0.5,0.1-1.1,0.1-1.6,0.2l0.1,0c2.1-0.4,4.2-0.7,6.3-1
				l3.1-0.4c1.1-0.1,2.1-0.3,3.2-0.4c0.1,0,0.1-0.1,0-0.1c-1.1,0-2.2,0-3.2,0.1c-1.1,0.1-2.2,0.2-3.2,0.4c-2.1,0.3-4.3,0.7-6.4,1.1
				c-0.4,0.1-0.9,0.2-1.3,0.2l0.1,0c2.2-0.4,4.3-0.8,6.5-1.2l3.3-0.5c1.1-0.2,2.2-0.3,3.3-0.5c2.2-0.3,4.5-0.6,6.7-0.8
				c2.2-0.3,4.5-0.4,6.7-0.6c2.2-0.2,4.5-0.3,6.7-0.6c2.5-0.3,5-0.7,7.5-1.2c1.6-0.3,3.1-0.5,4.7-0.8c1.2-0.2,2.5-0.3,3.7-0.4
				c0,0,0-0.1,0-0.1c-0.4,0-0.7,0-1.1,0c0.1-0.1,0-0.4-0.1-0.4c-1.1-0.2-2.3-0.1-3.4,0c-1.1,0.1-2.3,0.4-3.4,0.6
				c-2.2,0.4-4.3,0.8-6.5,1.1c-1.1,0.1-2.3,0.3-3.4,0.4c-1.1,0.1-2.3,0.2-3.4,0.3c-2.3,0.2-4.6,0.3-6.8,0.5
				c-1.2,0.1-2.4,0.3-3.5,0.4c1.8-0.4,3.5-0.9,5.3-1.3c1.8-0.4,3.5-0.8,5.3-1.1c1.8-0.3,3.6-0.6,5.4-0.8c1.8-0.1,3.6-0.2,5.4-0.1
				c0.1,0,0.1-0.2,0-0.2c-1.7-0.1-3.3-0.1-4.9,0c-1.6,0.1-3.3,0.3-4.9,0.5l0.6-0.1c1.3-0.3,2.6-0.6,3.9-0.9l3.9-0.8
				c1.3,0,2.5-0.2,3.8-0.4c1-0.1,2-0.2,3-0.4l1.2-0.1c2.5-0.1,5.1-0.2,7.6-0.7l1.9-0.1c0.1,0,0.1-0.1,0-0.1l0,0c0.1,0,0.1-0.2,0-0.1
				c-0.3,0-0.6,0.1-0.9,0.1c0.1-0.2,0-0.5-0.2-0.5c-1.7-0.1-3.3,0.1-5,0.2c0.3-0.1,0.6-0.2,0.8-0.4c0.1,0,0.1-0.1,0.1-0.2
				c0.5-0.1,1-0.2,1.5-0.3c0.1,0,0-0.2,0-0.2c-0.5,0-1,0.1-1.5,0.1c0-0.1-0.1-0.2-0.2-0.2c-0.5-0.1-1-0.1-1.5-0.1
				c0-0.2-0.1-0.4-0.2-0.5c0.1-0.1,0.1-0.3,0-0.5c0.3-0.2,0.6-0.3,0.9-0.5c0.1-0.1,0.1-0.2,0.1-0.3c0.4-0.1,0.7-0.2,1.1-0.3
				c0.1,0,0.1-0.3,0-0.3c-0.1,0-0.3-0.1-0.4-0.1c0.4,0,0.8-0.1,1.2-0.1c0.1,0,0.1-0.1,0-0.1c-0.7,0-1.4,0-2.2,0.1
				c-1.3-0.1-2.7,0-4,0c-1.8,0.1-3.5,0.2-5.3,0.4c-1.5,0.1-2.9,0.3-4.4,0.5c-0.7,0.1-1.4,0.2-2.2,0.4c-0.7,0.1-1.4,0.3-2.2,0.4
				c-2.2,0.2-4.3,0.5-6.5,0.7l-3.2,0.4l-3.2,0.5c-0.9,0.1-1.8,0.2-2.7,0.4c0,0,0,0,0,0c-2,0.3-3.9,0.6-5.9,0.9l-6.3,1.1L155,6.5
				l-1.6,0.3L151.9,7l-6.3,1.2c-2.1,0.4-4.2,0.8-6.3,1.3c-4.7,1-9.3,1.9-13.9,3.4c-0.2,0.1-0.1,0.4,0.1,0.4c1.1-0.2,2.1-0.3,3.2-0.5
				l3.2-0.6c2.1-0.4,4.2-0.8,6.3-1.3l3.1-0.7c1-0.2,2.1-0.4,3.1-0.7c2.1-0.4,4.2-0.9,6.3-1.3l2.8-0.5l2.8-0.5l5.6-1l2.8-0.5
				c0.9-0.2,1.9-0.3,2.8-0.5l5.6-0.9c0,0,0,0.1,0,0.1c-1.3,0.3-2.6,0.6-3.9,0.9L168,5.5L165,6l-3.1,0.5l-6.1,1
				c-2,0.3-4.1,0.7-6.1,1.1l-6.1,1.2c-2,0.4-4,0.9-6,1.3c-2,0.5-4,1-6,1.5c-0.1,0-0.1,0.3,0,0.3c2.7-0.5,5.4-1,8.1-1.5
				c-0.7,0.2-1.5,0.5-2.2,0.7c-2.5,0.6-5,1.1-7.5,1.6c-2.5,0.5-5.1,1-7.7,1.4c-1.3,0.2-2.6,0.4-3.8,0.7c-1.3,0.3-2.6,0.5-3.8,0.8
				c-1.6,0.4-3.2,0.7-4.8,1.1l-2.4,0.6l-2.4,0.6c-3.1,0.8-6.3,1.7-9.4,2.6c-1.9,0.5-3.7,1.1-5.7,1.4l4.1-1.1l2-0.6l2-0.5
				c2.7-0.7,5.4-1.4,8.1-2.2c1.3-0.4,2.7-0.8,4.1-1.1c1.4-0.4,2.7-0.8,4.1-1.2c1.4-0.4,2.7-0.8,4.1-1.2c1.3-0.4,2.7-0.8,4-1.3
				c0.1,0,0-0.2,0-0.2c-1.2,0.3-2.5,0.6-3.7,0.8c-1.2,0.3-2.5,0.6-3.7,1c-2.5,0.7-4.9,1.3-7.4,2c-2.4,0.7-4.9,1.4-7.3,2.1
				c-1.2,0.3-2.4,0.7-3.7,1l-3.7,1c-1.9,0.5-3.9,1-5.8,1.6c-0.2,0-0.5,0-0.7,0c-0.2,0-0.3,0.1-0.3,0.3c-1.5,0.4-2.9,0.8-4.4,1.3
				c-1.5,0.4-2.9,0.9-4.4,1.3l-3.6,1c-3.9,1.1-7.8,2.2-11.7,3.4c-3.8,1.2-7.6,2.3-11.4,3.6c-3,1-6.4,1.8-8.9,3.9
				c-0.7,0.3-1.5,0.4-2.2,0.8c-1.2,0.7-2.3,1.3-3.6,1.7c-1.9,0.7-4.3,1-5.6,2.8c-0.1,0.1,0,0.2,0.1,0.2c1-0.6,2-1,3-1.4
				c0,0.2,0,0.3,0.2,0.4c-0.6,0.3-1.2,0.6-1.8,1c-0.3,0.2,0,0.7,0.3,0.6c0.6-0.1,1-0.3,1.4-0.6c0,0,0,0,0,0.1l-0.1,0.8
				c0,0.2,0.1,0.4,0.3,0.4c0.3,0.1,0.5,0.1,0.7,0.1c0,0.1,0.1,0.2,0.2,0.3c-0.4,0.4-0.8,0.9-1,1.5c-0.1,0.2,0.1,0.7,0.4,0.6
				c0.1,0,0.1,0,0.2,0c0,0,0,0.1,0.1,0.1l-0.1,0.1c-0.5,0.3-1.1,0.5-1.7,0.7c-0.1,0.1-0.1,0.3,0.1,0.3c0,0,0.1,0,0.1,0
				c0,0.2,0.1,0.5,0.3,0.6l-0.4,0.2c-0.2,0.1-0.1,0.5,0.1,0.6c0.4,0,0.7,0,0.9-0.1c0,0,0,0,0,0.1c0.4,0.7,0.9,0.8,1.5,0.7l-0.2,0.1
				c-0.1,0-0.1,0.1-0.1,0.2l-0.4,0.2c-0.1,0.1-0.1,0.4,0.1,0.4c0.3,0,0.7,0,1-0.1c0,0.1,0.1,0.1,0.2,0.1c0,0,0.1,0,0.1,0l0,0.2
				c-0.1,0.1-0.1,0.2,0,0.3c0,0.2,0.1,0.4,0.2,0.6c-0.1,0-0.3,0.1-0.4,0.2c-0.1,0.1-0.2,0.2-0.2,0.3c0,0-0.1,0-0.1,0
				c-0.1,0-0.2,0.2-0.1,0.3l0,0c-0.1,0.1,0,0.3,0.1,0.3c0.2,0.1,0.3,0.1,0.4,0c0.2,0,0.4,0,0.6,0c0.1,0.4,0.5,0.8,0.9,0.9
				c0.5,0.5,1.1,0.7,1.7,0.8l0,0c-0.7,0.3-1.5,0.7-2.1,1.1c-0.3,0.2-0.1,0.6,0.1,0.7c-0.6,0.1-1.1,0.3-1.5,0.7
				c-0.1,0.1,0,0.3,0.1,0.2c0.1,0,0.1-0.1,0.2-0.1c0,0,0,0,0,0c0.1-0.1,0.2-0.1,0.2-0.2c0,0.1,0,0.2,0.1,0.4
				c0.1,0.2,0.2,0.3,0.4,0.2c0.3-0.1,0.5-0.2,0.8-0.3c0,0.1,0,0.1,0.1,0.1c0.1,0,0.2,0,0.3,0l0,0c0,0.1,0,0.2,0.1,0.2
				c0.1,0,0.2,0,0.3,0c0.1,0.1,0.2,0.2,0.3,0.2c0.3,0.5,0.7,0.7,1.1,0.9l-0.1,0c-0.2,0-0.4,0.1-0.5,0.2c-0.1,0,0,0.2,0,0.2
				c0,0,0.1,0,0.1,0c0,0-0.1,0.1-0.1,0.1c0,0,0,0,0,0.1c-0.5,0.2-1.1,0.4-1.6,0.6c-0.2,0.1-0.2,0.3-0.2,0.5c-0.1,0-0.2,0.1-0.3,0.1
				c-0.1,0,0,0.1,0,0.2c0.1,0,0.1,0,0.2,0c0,0,0,0,0,0.1c0,0.1,0.1,0.1,0.1,0.1c0,0,0.1,0,0.1,0c0.1,0,0.1,0.1,0.2,0.1l0.8,0.2
				l-0.1,0.1c-0.4,0.3-0.1,1,0.4,1.1c1.6,0.2,3.1,0.2,4.5-0.2c-1,0.4-2.1,0.8-3,1.4c-0.2,0.1-0.4,0.2-0.6,0.4c0,0,0,0.1,0,0.2
				c-0.1,0-0.2,0.1-0.2,0.1c-0.1,0,0,0.2,0.1,0.2c0.2,0.1,0.4,0.2,0.6,0.2c0.1,0.1,0.2,0.1,0.3,0.1c0.1,0,0.2-0.1,0.4-0.1
				c0.1,0.2,0.2,0.3,0.3,0.4c-0.1,0-0.1,0-0.2,0.1c-0.4,0.2-0.2,1,0.3,1.1l0.8,0.1c0.1,0.4,0.2,0.8,0.5,1.2c0,0.1,0,0.2,0.1,0.2l0,0
				c0.1,0.1,0.3,0.1,0.4,0.1c0.4-0.1,0.7-0.3,1.1-0.4c0,0,0,0,0,0l0.5-0.2c0,0,0,0,0,0c0,0,0.1,0,0.1,0l0.7-0.1
				c-1,0.3-2.8,0.8-2.5,2.3c0.1,0.4,0.4,0.7,0.7,0.5l0.1,0c0,0,0,0.1,0,0.1c-0.1,0.1-0.1,0.3,0,0.4l-0.1,0c-0.1,0-0.1,0.2,0,0.3l0,0
				c-0.1,0-0.1,0.2,0,0.2c-0.1,0.1-0.2,0.1-0.3,0.2c-0.1,0.1,0,0.3,0.2,0.3l0.1-0.1c0,0,0,0,0.1,0c0.6-0.3,1.3-0.5,2-0.7l0.1,0
				c-0.2,0.3,0,0.8,0.4,0.7l1-0.1L46.2,72c-0.2,0.1-0.2,0.2-0.2,0.4c-0.1,0.1-0.1,0.2,0,0.3c0,0,0.1,0,0.1,0.1
				c0,0.1,0.1,0.1,0.1,0.1c0,0,0,0.1,0,0.1c-0.1,0-0.2,0.1-0.2,0.1l0,0l0,0l0,0c-0.1,0.1,0,0.3,0.1,0.3c0.1,0,0.2,0,0.3,0
				c0,0-0.1,0-0.1,0.1c-0.1,0.1,0,0.2,0.1,0.2c0.5-0.1,1-0.3,1.4-0.5c0.5-0.1,1-0.4,1.5-0.6c1.4-0.6,2.8-1.1,4.2-1.6
				c0.2,0.2,0.4,0.3,0.6,0.2l1.3-0.5c0,0,0.1,0,0.1,0l0,0c-1.2,0.4-2.4,0.8-3.5,1.3c-1.2,0.5-2.3,1-3.3,1.6c-0.1,0-0.1,0.1-0.2,0.1
				c-0.2,0.1-0.3,0.1-0.5,0.2c0,0,0,0-0.1,0.1c-0.3,0.1-0.6,0.1-0.7,0.4c-0.1,0.1,0.1,0.2,0.1,0.2c0.1-0.2,0.4-0.3,0.6-0.3
				c0,0,0.1,0,0.1,0l0.2-0.1c0,0,0,0,0.1,0l0,0l0,0c-0.1,0.1,0,0.3,0.1,0.3c0.3,0,0.6,0.1,0.9,0c0.1,0.3,0.4,0.7,0.7,0.7l0.9-0.1
				c0,0,0,0.1,0.1,0.1c0.1-0.1,0.3-0.1,0.5-0.1l0,0c-0.1,0.1-0.1,0.2,0.1,0.3l0.2,0.1l-0.2,0.2c0,0,0,0.1,0,0.2
				c-0.2,0.1-0.4,0.1-0.6,0.2c-0.1,0,0,0.1,0.1,0.1c0.1,0,0.2,0,0.3-0.1c0,0.1,0.1,0.2,0.1,0.1c0.2-0.1,0.3-0.1,0.5-0.2
				c0,0,0.1,0.1,0.1,0c0.4-0.1,0.7-0.2,1.1-0.3l0.2,0c0,0,0,0,0,0c0.1,0,0.1-0.1,0.2-0.1c0.6-0.1,1.1-0.3,1.5-0.6c0,0,0-0.1,0.1-0.1
				c2.7-0.8,5.3-1.9,7.8-3.1l1.6-0.5l1.6-0.5c1-0.4,2.1-0.7,3.1-1.1c2.1-0.7,4.1-1.5,6.2-2.4c0.1-0.1,0-0.3-0.1-0.3
				c-2,0.8-3.9,1.5-5.9,2.2l4.6-1.8c2.2-0.9,4.6-1.5,6.7-2.7c0.1-0.1,0-0.3-0.1-0.3c-1.2,0.2-2.4,0.6-3.6,1
				c-1.2,0.4-2.3,0.9-3.5,1.3c-2.4,0.9-4.8,1.7-7.1,2.6c-1.9,0.7-3.9,1.4-5.8,2.2c-1.9,0.7-3.8,1.5-5.7,2.4L54.3,74
				c0-0.1-0.1-0.2-0.2-0.3c1.4-0.5,2.8-0.9,4.1-1.5c0.2-0.1,0.2-0.4,0.2-0.6l1.5-0.7c1.1-0.4,2.3-0.8,3.5-1.1c0.1,0,0.1-0.3,0-0.4
				c0.7-0.3,1.4-0.5,2-0.8c1.7-0.7,3.4-1.3,5.2-1.9c1.7-0.6,3.6-1.1,5.2-1.9c0.2-0.1,0-0.4-0.1-0.4c-0.5,0-1,0.1-1.4,0.2l0.5-0.2
				c0.2-0.1,0.3-0.4,0.2-0.6l1.2-0.5c3-0.8,5.9-1.5,8.9-2.3l6.7-1.6l3.4-0.8l3.4-0.8l6.7-1.6c2.2-0.5,4.5-1,6.7-1.5l5.1-1.1l5.2-1.1
				l5.2-1.1l5.2-1c-0.7,0.2-1.4,0.4-2.1,0.5c-0.8,0.2-1.6,0.3-2.4,0.5c-0.8,0.2-1.6,0.4-2.4,0.6c-0.3,0.1-0.2,0.7,0.1,0.7
				c0.9,0,1.7-0.1,2.6-0.2c0.9-0.1,1.7-0.3,2.5-0.4c1.5-0.3,3.2-0.5,4.6-1.4c0.2-0.1,0.1-0.5-0.1-0.5c-0.5,0-1,0-1.5,0.1l5.1-1
				l5.1-0.9l5.1-1l5.1-0.9c0,0.1,0,0.2,0.1,0.3c2,0.3,3.9,0.4,5.9,0.3C162,46.9,164.1,47,165.6,45.9z M179.7,3.3l1.2-0.2l-0.5,0.1
				L179.7,3.3z M177.2,4.1l0.7-0.1l-0.7,0.2C177.2,4.2,177.2,4.1,177.2,4.1z M85,24.4c-0.2,0-0.3-0.1-0.5-0.1
				c0.6-0.2,1.3-0.3,1.9-0.5l0,0c0.4,0,0.8,0,1.2,0l-2.5,0.7C85.1,24.5,85.1,24.4,85,24.4z M202.1,1.6c0,0.1,0,0.2,0,0.4
				c-0.3,0.1-0.7,0.1-1,0.1C201.3,1.9,201.7,1.8,202.1,1.6C202,1.6,202.1,1.6,202.1,1.6z M174.2,5.1l-1,0.3l-5.9,1.3l0.1-0.1
				c1.5-0.4,3.1-0.8,4.6-1.2L174.2,5.1z M152,9l1.7-0.3l1.7-0.3l7.4-1.3l-0.4,0.1l-5.1,1.1c-1.7,0.4-3.4,0.7-5.1,1.1
				C152.2,9.2,152.1,9.1,152,9z M200.2,3.7c0.3-0.1,0.6-0.1,0.9-0.2c0,0-0.1,0.1-0.1,0.1C200.7,3.6,200.5,3.6,200.2,3.7z
				 M134.4,15.8c0.9-0.3,1.9-0.7,2.8-1C136.3,15.1,135.3,15.4,134.4,15.8z M110.2,20.5c0.9-0.2,1.7-0.5,2.6-0.7
				c1.2-0.3,2.3-0.5,3.5-0.8l-2.2,0.7C112.8,20,111.5,20.3,110.2,20.5z M35.2,46.2c-0.1,0-0.3,0-0.4,0c0.3-0.3,0.6-0.5,0.9-0.8
				c0.2,0.1,0.5,0.1,0.7,0.1c0.2,0,0.5,0,0.7,0C36.5,45.9,35.9,46.1,35.2,46.2z M166.6,11.4l0.5-0.1c0.1,0,0.1-0.3-0.1-0.3l-0.7,0.1
				c0.5-0.2,1-0.4,1.5-0.6c0,0,0,0.1,0,0.1c-0.1,0.1-0.2,0.2-0.3,0.3c-0.1,0.1,0,0.3,0.1,0.4l0.1,0
				C167.3,11.3,166.9,11.4,166.6,11.4z M163.5,12.3l1.8-0.5l0.5,0c0.6,0,1.2,0,1.8-0.2l-0.4,0.1C165.9,11.9,164.7,12.1,163.5,12.3z
				 M148.6,17.5L148.6,17.5c0.3-0.2,0.7-0.3,1.1-0.5c0,0.1,0.1,0.1,0.2,0.1l1.1-0.1l-1.7,0.3c-0.2,0-0.2,0.3-0.2,0.5l-0.4,0.1
				C148.7,17.7,148.7,17.6,148.6,17.5z M203.9,10.4L203.9,10.4c0.1,0,0.1,0,0.1,0.1c0.2,0,0.1,0.1-0.1,0.1
				C203.9,10.5,203.9,10.4,203.9,10.4z M195.5,19.7C195.6,19.7,195.6,19.7,195.5,19.7c0.5-0.1,0.8-0.2,1.2-0.2l-1,0.2
				c-0.2,0-0.3,0.1-0.4,0.3l-0.8,0.1C194.9,19.9,195.2,19.8,195.5,19.7z M202.3,20.3C202.3,20.3,202.3,20.3,202.3,20.3l1-0.2
				c0,0,0,0.1,0,0.1l0,0c-0.2-0.1-0.5,0-0.7,0.1C202.6,20.3,202.4,20.3,202.3,20.3z M142.3,46.6c-4.4,0.8-8.7,1.7-13.1,2.5
				c-2.2,0.4-4.4,0.9-6.5,1.4l-6.5,1.4l-6.5,1.5c-2.2,0.5-4.4,0.9-6.5,1.5c-4.3,1-8.7,2-13,3.1l2.9-1.1l1.4-0.5l1.4-0.5
				c2.9-0.7,5.8-1.4,8.7-2.1c2.9-0.7,5.8-1.4,8.7-2c3.1-0.7,6.3-1.3,9.5-1.9c1.6-0.3,3.2-0.6,4.7-0.9l4.8-0.8c3-0.5,6-1.1,9-1.5
				l4.5-0.7c1.5-0.2,3-0.5,4.5-0.7c-1.3,0.2-2.6,0.5-4,0.7L142.3,46.6z M204.2,20.5c0.2-0.2,0.7-0.1,0.9,0.1c0.1,0,0,0.2,0,0.2l0,0
				c-0.1,0-0.3-0.1-0.4-0.1c-0.1,0-0.3,0-0.4,0C204.2,20.6,204.2,20.5,204.2,20.5z M200.3,39.2c1.8-0.4,3.7-0.8,5.6-0.8
				c0,0,0.1,0.1,0,0.1c-1.8,0.4-3.7,0.6-5.6,0.8C200.2,39.4,200.2,39.2,200.3,39.2z M190.4,0.7c2.5-0.4,5.1-0.6,7.6-0.7
				c0.1,0,0.1,0.1,0,0.2c-2.5,0.3-5,0.6-7.6,0.7C190.3,0.8,190.3,0.7,190.4,0.7z M210.9,32.2C210.9,32.3,210.8,32.3,210.9,32.2
				C210.8,32.2,210.9,32.2,210.9,32.2z"/>
		</g>
		<g>
			<path class="st1" d="M153.5,184.8c3.4-0.8,6.6-2.3,9.9-3.5c3.4-1.3,6.9-2.4,10.2-4.1c0.3-0.2,0.1-1-0.2-0.9
				c-3.4,0.8-6.7,2.1-9.9,3.3c-3.4,1.3-7,2.4-10.2,4.3C152.9,184.1,153.1,184.9,153.5,184.8z M64.9,189.5c0.1,0,0.1-0.1,0.2-0.1
				c0.1-0.1,0.2,0,0.2,0.1c0-0.3,0.4-0.2,0.6,0c0.1,0,0.2,0,0.3,0c0.1,0,0.1,0.2,0.1,0.2c-0.7,0.3-1.4,0.4-2,0.8
				c-0.1,0.1-0.2-0.1-0.2-0.2c-0.4,0.3-0.9,0.5-1.4,0.7c-0.1,0-0.2-0.1-0.1-0.2c0.5-0.4,1-0.7,1.5-1
				C64.3,189.7,64.6,189.6,64.9,189.5C64.9,189.5,64.9,189.5,64.9,189.5z M66.2,193.4c0,0.1-0.1,0.1-0.1,0.2c0,0-0.1,0-0.1,0
				c-0.2,0.1-0.4,0.3-0.7,0.4c-0.1,0.1-0.2-0.2-0.1-0.2c0.2-0.3,0.5-0.5,0.8-0.7C66,193,66.2,193.2,66.2,193.4z M145.9,188.3
				c2.5-1.2,4.8-2.8,7-4.6c0.1-0.1,0-0.3-0.1-0.4l7-2.6l7-2.5l7-2.5l7-2.4c-0.7,0.3-1.3,0.6-1.9,0.9c-0.3,0.2-0.2,0.7,0.2,0.8
				c2.3,0.1,4.5-0.8,6.6-1.6c1.2-0.4,2.3-0.8,3.4-1.3c1.1-0.5,2.3-1,3.3-1.6c0.4-0.2,0.1-1-0.3-0.9c-1.1,0.3-2.3,0.6-3.4,1
				c-1.1,0.4-2.2,0.8-3.3,1.2c-0.9,0.3-2,0.6-2.9,0.9l7.1-2.5l7.1-2.4l7.1-2.4l7.2-2.3c3.1-1,6.2-2,9.4-3l9.4-2.9l4.7-1.5l4.7-1.4
				l9.5-2.9c4.2-1.2,8.4-2.4,12.6-3.6l1.8-0.2c0.1,0.3,0.3,0.7,0.6,0.6l0.8-0.1c-0.7,0.2-1.3,0.5-1.9,0.8c-0.2,0.1-0.2,0.6,0.1,0.6
				c2.6-0.3,5.2-1,7.8-1.5c2.6-0.5,5.2-0.9,7.8-1.4c1-0.2,2.1-0.3,3.1-0.5c0,0.2,0.1,0.5,0.3,0.5c1.7-0.4,3.4-0.8,5.1-1.1l2.3-0.2
				c0.1,0.4,0.3,0.7,0.7,0.7c2.1-0.2,4.1-0.7,6.1-1c0,0.2,0,0.4,0,0.5l-0.6,0.2c-2.9,0.2-5.9,0.6-8.8,1.1c-2.9,0.5-5.8,1-8.7,1.5
				c-3.6,0.6-7.1,1.2-10.7,1.9c-1.7,0.3-3.5,0.6-5.2,0.9c-1.7,0.3-3.5,0.7-5.1,1.3c-0.2,0.1-0.1,0.4,0.1,0.4c3.4,0,6.8-1,10.2-1.5
				l7-1.1c-3,0.5-5.9,1-8.9,1.5c-0.2,0-0.1,0.5,0.1,0.4c3.1-0.5,6.2-0.9,9.3-1.5c1.5-0.3,3.1-0.6,4.6-0.9l2.3-0.5l2.3-0.5
				c4-0.5,8-1,11.9-1.9c0,0,0.1,0.1,0.1,0.1c0.8,0.2,1.5,0,2.3-0.3c0.1,0,0.2,0,0.3,0c0,0,0,0,0.1,0l0.2-0.1c0.5-0.1,1-0.2,1.5-0.4
				c0.1,0,0.1-0.1,0.1-0.1c0.2,0,0.5-0.1,0.7-0.1c0.1,0,0.1-0.2,0.1-0.3c0.2-0.1,0.3-0.1,0.5-0.2c0.1,0,0.1-0.2,0-0.2
				c-0.3,0-0.6,0-0.9,0.1c0-0.1-0.1-0.2-0.1-0.2l-0.4-0.1l0.2-0.2c0.1-0.1,0-0.4-0.1-0.4l0,0c0.2-0.1,0.4-0.1,0.7-0.2
				c0.1,0,0.1-0.1,0.1-0.2l1.2-0.5c0.4-0.2,0.5-0.8,0.4-1.3c0.4,0,0.8-0.4,1.1-0.6c0.1-0.1,0.1-0.4-0.1-0.4l0,0l0,0c0,0,0-0.1,0-0.1
				l0.3,0c0.1,0,0.1,0,0.1-0.1c0.4-0.1,0.7-0.2,1-0.1c0.2,0.1,0.2-0.2,0.1-0.3c-0.3-0.2-0.8-0.1-1.2,0c0,0-0.1,0-0.1,0
				c-0.2,0-0.5,0.1-0.7,0.1c-0.1-0.1-0.2-0.1-0.3-0.1c-1.8,0-3.5,0.2-5.3,0.4c-1.8,0.2-3.5,0.6-5.2,1l-0.1,0c0,0,0.1-0.1,0.1-0.1
				l1.9-0.3c0.4-0.1,0.6-0.4,0.6-0.7c2.1-0.5,4.2-0.8,6.4-1.1c0.8-0.1,1.6-0.1,2.3-0.4c0.7,0,1.5-0.1,2.1-0.3c0.1,0,0.1-0.3,0-0.3
				c-0.1,0-0.1,0-0.2,0c0.1-0.1,0.3-0.1,0.4-0.2c0.1-0.1,0.1-0.4-0.1-0.4l0,0l0,0l0,0c-0.1,0-0.3,0-0.4,0c0-0.1-0.1-0.1-0.1-0.1
				c0-0.1,0.1-0.2,0.1-0.3c0,0,0.1-0.1,0.1-0.1c0.1-0.2,0-0.4-0.2-0.4c-0.1-0.2-0.3-0.4-0.6-0.4l-0.3,0l1.3-0.6
				c0.4-0.2,0.4-1-0.1-1.2l0.1-0.1c1-0.3,1.9-0.5,2.9-0.5c0,0,0,0,0.1-0.1l0.1,0c0.2,0,0.2-0.4,0-0.4c-0.2,0-0.4,0-0.5,0
				c0-0.1-0.1-0.3-0.2-0.3l0,0c0-0.1-0.1-0.3-0.2-0.3l-0.1,0c0-0.3-0.2-0.5-0.4-0.5c-0.1-0.1-0.2-0.1-0.2-0.1l0.2,0
				c0.5,0,0.7-0.5,0.5-1.2c-0.7-2.2-3.3-1.4-4.7-1.1l0.9-0.3c0,0,0.1,0,0.1-0.1c0,0,0,0,0.1,0l0.8-0.2c0,0,0,0,0,0
				c0.6-0.1,1.1-0.2,1.6-0.3c0.2,0,0.3-0.2,0.4-0.4l0.1,0c0.1-0.1,0.1-0.3,0-0.4c0-0.7-0.1-1.2-0.3-1.8l0.9-0.7
				c0.5-0.5,0.2-1.6-0.5-1.5c-0.1,0-0.2,0-0.2,0c0.1-0.2,0.1-0.4,0.1-0.7c0.2,0,0.3-0.1,0.5-0.1c0.2,0,0.3-0.2,0.3-0.3
				c0.2-0.1,0.4-0.4,0.5-0.7c0.1-0.1,0-0.3-0.1-0.3c-0.1,0-0.3,0-0.4,0c0-0.1,0-0.2-0.1-0.2c-0.3,0-0.7-0.1-1,0
				c-1.6-0.1-3.2,0.2-4.7,0.4c2-0.5,3.9-1.5,5.8-3c0.5-0.4,0.4-1.6-0.3-1.6l-0.1,0l0.8-0.8c0.1-0.1,0.1-0.2,0.2-0.3
				c0,0,0.1-0.1,0.2-0.1c0.1,0,0.1-0.1,0-0.2c0,0,0,0-0.1-0.1c0.1,0,0.1-0.1,0.2-0.2c0.1-0.1,0-0.2-0.1-0.2c-0.1,0-0.3,0-0.4,0
				c-0.2-0.3-0.4-0.5-0.7-0.4c-0.8,0.1-1.6,0.2-2.4,0.3c0,0,0-0.1-0.1-0.1c-0.1,0-0.1,0-0.2,0c0.1,0,0.1-0.1,0.1-0.1
				c0.1-0.1,0-0.2-0.1-0.3c-0.2,0-0.5,0.1-0.7,0.2l-0.2,0c0.4-0.5,0.7-1.1,0.7-1.9c0.1-0.1,0.2-0.3,0.2-0.4c0.1-0.1,0.3-0.2,0.4-0.2
				c0.1-0.1,0.1-0.3,0-0.3l-0.1,0c0.1-0.1,0.3-0.1,0.4-0.2c0.1-0.1,0.1-0.2,0-0.2c0.4,0,0.8-0.1,1.2-0.1c0.2,0,0.3-0.3,0.3-0.5
				c0-0.2-0.1-0.4-0.2-0.5c0.1,0,0.3,0,0.4,0c0,0,0,0,0,0c0.1,0,0.2,0,0.3,0c0.2,0,0.2-0.3,0-0.3c-0.8-0.2-1.6-0.1-2.4,0.2
				c0.2-0.4,0-1-0.4-1c-1.1,0-2.3,0-3.4,0.2l0,0c0.7-0.5,1.2-1.3,1.5-2.2c0.3-0.4,0.5-1.2,0.4-1.8c0.2-0.1,0.5-0.2,0.7-0.4
				c0.2,0,0.3-0.2,0.5-0.3c0.1-0.1,0.1-0.4-0.1-0.5l0,0c0-0.2-0.2-0.4-0.4-0.3c0,0-0.1,0-0.1,0c-0.2-0.1-0.3-0.2-0.5-0.3
				c-0.2-0.1-0.4,0-0.6,0c-0.1-0.3-0.2-0.7-0.2-0.9c-0.1-0.2-0.2-0.3-0.3-0.4l-0.1-0.3c0,0,0.1-0.1,0.1-0.1c0.1-0.1,0.1-0.2,0.1-0.3
				c0.4-0.2,0.8-0.4,1.3-0.6c0.2-0.1,0.1-0.5-0.2-0.5l-0.7,0.1c0-0.1-0.1-0.2-0.3-0.2l-0.3,0.1c0.7-0.3,1.3-0.8,1.3-2
				c0,0,0-0.1,0-0.1c0.4-0.1,0.8-0.3,1.2-0.6c0.3-0.2,0.1-0.9-0.2-0.8l-0.7,0.1c0.2-0.3,0.2-0.7,0-1c0,0,0.1,0,0.1-0.1
				c0.2-0.1,0.1-0.5-0.1-0.5c-0.8,0.1-1.7,0.3-2.5,0.4l-0.2,0c0,0,0-0.1,0-0.1c0.1,0,0.1-0.1,0.2-0.1c0.3-0.2,0.3-0.8,0-1.1
				c-0.7-0.6-1.5-0.9-2.3-1.1c0-0.2,0.1-0.3,0-0.5c0.3-0.1,0.5-0.3,0.8-0.6c0.2-0.2,0.2-0.5,0-0.7l-0.8-0.9c0,0,0,0-0.1-0.1
				c0.7,0.2,1.4,0,2.2-0.2c0.4-0.1,0.4-1-0.1-1c-1,0-1.9,0-2.9,0.1c0.1-0.2,0-0.5-0.1-0.7c1.6-0.2,3.1-0.4,4.7-0.4
				c0.1,0,0.2-0.3,0-0.3c-3-1.2-6.1,0-9,0.6c-1.9,0.4-3.7,0.4-5.6,0.4c-1.1,0-2.2,0.4-3.3,0.6c-4.6-0.8-9.3,0.7-13.7,1.5
				c-5.5,1.2-11.1,2.5-16.6,3.8c-5.6,1.4-11.2,2.8-16.8,4.2l-5.1,1.4c-2.1,0.5-4.2,1-6.3,1.5c-2.1,0.5-4.2,1-6.3,1.6
				c-0.1-0.2-0.4-0.3-0.6-0.2c-0.3,0.2-0.6,0.4-0.9,0.6c-2.8,0.8-5.5,1.5-8.3,2.3l-5.3,1.4c-1.8,0.5-3.5,0.9-5.3,1.4
				c-3.5,0.9-7,1.8-10.6,2.6c-3.5,0.9-7,1.8-10.5,2.8c-1.8,0.5-3.5,1-5.2,1.5c-1.7,0.5-3.5,1.1-5.2,1.6c-0.1,0,0,0.3,0.1,0.2
				c2-0.4,3.9-0.9,5.9-1.4c2-0.4,3.9-0.9,5.9-1.4c2-0.5,3.9-1,5.8-1.5c1.9-0.5,3.9-1.1,5.8-1.5c3.9-1,7.7-2,11.6-3.1l2.9-0.8
				l2.9-0.8l5.8-1.6c-2.6,1-5.3,1.7-8,2.3c-4.5,1.1-9,2.3-13.5,3.6l-3.4,0.9l-3.3,1c-2.2,0.7-4.4,1.4-6.6,2.1
				c-1.8,0.6-3.5,1.2-5.3,1.8c-1.8,0.6-3.5,1.3-5.2,1.9c-3.5,1.3-7,2.6-10.5,3.8c-3.5,1.2-6.9,2.5-10.4,3.5
				c-1.1,0.3-2.1,0.6-3.2,0.8c3.7-1.3,7.4-2.6,11-4c0.2-0.1,0-0.4-0.1-0.4c-2.8,0.8-5.7,1.7-8.5,2.5c-2.8,0.9-5.6,1.7-8.4,2.7
				l-8.3,2.9c-2.8,1-5.6,2-8.3,3l-8.3,3.1l-4.1,1.6l-4.1,1.7l-1.5,0.6c-1.8,0.5-3.6,1.1-5.4,1.6c0,0,0-0.1,0-0.1l7.5-2.9
				c1.3-0.5,2.5-1,3.8-1.5l3.8-1.4l7.6-2.8l3.8-1.4l3.8-1.3c2.9-1,5.8-2,8.7-3c1.4-0.5,2.9-1,4.3-1.4l4.4-1.4c2.9-0.9,5.8-1.9,8.7-3
				l4.3-1.6c1.4-0.5,2.9-1.1,4.3-1.7c0.2-0.1,0.1-0.6-0.1-0.6c-6.7,1.4-13.1,3.7-19.5,5.9c-2.9,0.9-5.8,2-8.7,3l-8.6,3.1l-2.2,0.8
				l-2.1,0.8l-4.3,1.6l-8.6,3.2c-2.6,1-5.3,2.1-7.9,3.1c0,0,0,0-0.1,0c-1.2,0.4-2.5,0.9-3.7,1.5l-4.3,1.7l-4.3,1.8
				c-2.8,1.2-5.7,2.5-8.5,3.8c-1,0.3-2,0.7-3,1c-1,0.4-2,0.7-2.9,1.1c-1.9,0.8-3.9,1.6-5.8,2.5c-2.3,1.1-4.6,2.2-6.8,3.3
				c-1.6,0.9-3.4,1.7-4.9,2.8c-0.9,0.5-1.8,1-2.7,1.5c-0.1,0.1,0,0.2,0.1,0.2c0.5-0.3,1-0.5,1.5-0.8c-0.2,0.1-0.3,0.3-0.4,0.4
				c-0.1,0.1,0,0.4,0.2,0.4c0.5-0.1,1.1-0.2,1.6-0.4c0.1,0.1,0.2,0.2,0.4,0.2c0.5,0.1,0.9,0,1.4-0.1c0,0.2,0.1,0.5,0.3,0.6
				c-0.1,0.2-0.1,0.5,0,0.8c-0.6,0.3-1.3,0.6-1.8,1.1c-0.1,0.1-0.1,0.2-0.1,0.4c-0.7,0.3-1.3,0.6-1.9,0.9c-0.1,0,0,0.2,0.1,0.2
				c0.7-0.2,1.4-0.5,2-0.7c0.1,0.1,0.2,0.1,0.3,0.1c0.4,0,0.8-0.1,1.2-0.1c-2.1,1-4.3,2.1-6.3,3.4c-0.3,0.2-0.1,0.7,0.1,0.8
				c-0.4,0.2-0.7,0.3-1.1,0.5c-0.1,0,0,0.2,0.1,0.2l0,0c0,0.1,0.1,0.2,0.1,0.1l2.4-1.2c3.4-1.2,6.7-3,9.8-4.6l1.5-0.8
				c1.3-0.5,2.6-1.1,3.9-1.7c1.6-0.7,3.3-1.4,4.9-2.3l5.4-1.8c1.8-0.6,3.6-1.1,5.4-1.7l0.8-0.2c-2.2,0.9-4.3,1.8-6.4,2.9
				c-2.1,1.1-4.1,2.3-6.1,3.6c-0.1,0.1,0,0.4,0.1,0.3c2.2-1.4,4.4-2.7,6.8-3.8c2.3-1.1,4.7-2,7.1-2.9c2.4-0.9,4.9-1.7,7.3-2.5
				c2.5-0.8,5-1.5,7.4-2.2c-1.6,0.7-3.1,1.3-4.7,2c-3,1.3-5.9,2.8-8.8,4.3c-1.5,0.7-2.9,1.4-4.4,2.1c-1.5,0.7-3,1.3-4.4,2
				c-2.9,1.3-5.8,2.3-8.8,3.4c-1.5,0.6-3.1,1.1-4.6,1.7c-1.5,0.7-2.9,1.5-4.2,2.5c-0.2,0.2-0.1,0.6,0.2,0.6
				c-0.4,0.3-0.9,0.5-1.3,0.8c-0.1,0,0,0.2,0.1,0.1c1.6-0.8,3.2-1.5,4.9-2.2c2.1-0.8,4.2-1.7,6.4-2.4c3.4-1.2,6.8-2.4,10.1-3.9
				c2.9-1.3,5.8-2.7,8.7-4.1c2.9-1.4,5.7-2.9,8.7-4.1c2.9-1.3,5.9-2.6,8.8-3.8c1.5-0.6,3-1.3,4.5-1.8l4.5-1.7c3-1.1,5.9-2.2,8.9-3.2
				l0.1,0c-0.6,0.2-1.2,0.4-1.8,0.6c-2.9,1-5.8,2.1-8.7,3.3c-1.4,0.6-2.8,1.2-4.2,1.9c-1.4,0.7-2.7,1.4-4.1,2.2
				c-0.1,0.1,0,0.2,0.1,0.2c1.4-0.6,2.8-1.2,4.2-1.8l4.2-1.8c2.8-1.2,5.6-2.3,8.4-3.3l0.1,0c-0.7,0.3-1.4,0.6-2.1,0.9
				c-0.6,0.3-1.4,0.4-1.9,0.9c-0.2,0.1-0.3,0.3-0.4,0.3c-0.3,0.1-0.6,0.2-0.8,0.3c-0.2,0.1,0,0.4,0.1,0.3l1.1-0.4
				c0.4-0.1,0.9-0.3,1.2-0.3c0.1,0,0.1-0.1,0-0.2c1.4-0.5,2.8-1.1,4.1-1.6l2.1-0.8l2.1-0.7c-1,0.5-1.9,1-2.8,1.5
				c-3.6,1.2-7.1,2.5-10.7,3.9c-1.8,0.7-3.5,1.4-5.2,2.2c-1.7,0.8-3.4,1.6-5.1,2.4c-3.3,0.1-6.7,1.8-9.5,2.9
				c-3.7,1.6-7.2,3.4-10.8,5.2c-1.4,0.7-2.8,1.4-4.1,2c-1.4,0.7-2.7,1.4-4.1,2c-2.8,1.3-5.5,2.5-8.3,3.7c-0.6,0.1-1.1,0.4-1.6,0.7
				c-1.3,0.6-2.7,1.1-4,1.7c-0.1,0-0.2,0.2-0.3,0.3c-0.3,0.2-0.7,0.3-1,0.5c-0.1,0,0,0.1,0,0.2l-1,0.4c-0.1,0-0.3,0.1-0.4,0.1
				c-0.2,0.1-0.4,0.1-0.6,0.1c-0.1,0-0.1,0.1-0.1,0.2l0,0.1c0,0.1,0.1,0.2,0.1,0.2c0.3,0.1,0.6-0.1,0.8-0.2c0.6-0.2,1.1-0.4,1.7-0.7
				c0,0,0,0,0,0c0,0.1,0.1,0.1,0.2,0.1c0,0,0.1,0,0.1,0c0,0.1,0,0.2,0.1,0.2l0.2,0c0,0.1,0.1,0.2,0.2,0.2c0.2-0.2,0.4-0.3,0.6-0.4
				c0,0.1,0.1,0.3,0.2,0.2l0.5-0.3c0.1,0,0.1-0.1,0-0.2c1.1-0.3,2.1-0.6,3.1-0.9c0.1,0.2,0.3,0.4,0.5,0.2c0.5-0.3,1-0.6,1.4-0.9
				c4.4-1.5,8.5-3.6,12.6-5.7c2.1-0.7,4.2-1.5,6.4-2.2c3.1-1.1,6-2.3,8.9-3.7c2.9-1.3,5.8-2.8,8.7-4.2c1-0.5,2-1,3-1.4
				c0,0,0.1,0,0.1,0c0.7,0,1.4-0.1,2-0.4c0.7-0.2,1.4-0.7,2.1-0.6c0.8,0,1.2,0.4,1.2,1.1c-4.8,1.7-9.6,3.5-14.3,5.4
				c-2.6,1-5.2,2.1-7.8,3.2l-7.8,3.2c-2.6,1-5.2,2.2-7.7,3.3l-7.7,3.4c-0.5,0.2,0,1.1,0.5,0.9c7-2.5,13.9-5.1,20.9-7.5
				c-0.1,0.1-0.2,0.2-0.3,0.3c-0.2,0.2,0,0.6,0.2,0.7c0.3,0,0.3,0,0.6-0.1c0,0,0,0,0.1,0c1.5-0.3,3-1.1,4.4-1.8c0,0.2,0,0.4,0,0.6
				c-0.2,0.2-0.3,0.4-0.5,0.6L86.9,172l-7,2.6c-1.9,0.7-4,1.3-5.9,2.2c-1,0.3-2,0.6-2.9,0.9c-2.1,0.7-4.7,1.3-6.6,2.7
				c0-0.1-0.1-0.1-0.2,0c-0.2,0.2-0.4,0.3-0.6,0.5c-0.6,0.2-1.1,0.4-1.5,0.8c0,0-0.1,0-0.1,0.1c-0.1,0.1,0.1,0.4,0.2,0.3
				c0.3-0.2,0.7-0.4,1-0.6c0,0.1,0.2,0.3,0.3,0.2c0,0,0.1,0,0.1-0.1c0,0.1,0.1,0.1,0.2,0.2c0,0.1,0.2,0.2,0.3,0.2
				c0.2-0.1,0.4-0.1,0.5-0.2c0.2,0,0.3,0,0.5-0.1c0.5,0,1,0,1.4-0.2c0,0,0.1-0.1,0.1-0.1c1.2-0.3,2.4-0.8,3.5-1.2
				c-0.5,0.3-1.1,0.7-1.5,1.2c0,0-0.1,0.1-0.1,0.1c-0.1,0.1-0.2,0.1-0.3,0.2c-0.1,0.1,0,0.3,0.1,0.3l0,0l0.3-0.2
				c0,0,0.1,0.1,0.2,0.1l0.3,0c0,0,0,0,0,0c1,0.2,1.5-0.1,2.4-0.4c0.3-0.1,0.7-0.2,1-0.3c-0.1,0.1-0.1,0.1-0.2,0.2
				c-0.2,0.2,0.1,0.8,0.4,0.7c0.8-0.3,1.7-0.5,2.5-0.8l0,0l0,0l0.6-0.2l-0.3,0.2c-0.1,0.1,0,0.3,0.1,0.2c0.4-0.3,0.9-0.5,1.4-0.8
				c0,0.1,0.1,0.3,0.2,0.3c-0.4,0.2-0.8,0.5-1.1,0.8c-0.3,0.2-0.2,0.7,0,0.9l-1.5,0.7c-0.1,0-0.2,0.1-0.3,0.1
				c-0.1,0-0.1,0.1-0.1,0.1l-0.2,0.1c-0.2,0.1-0.3,0.3-0.3,0.4c-1.6,0.7-3.2,1.5-4.6,2.5c0,0,0,0-0.1,0l0,0l0,0l0,0
				c-0.4,0.1-0.8,0.4-1.1,0.7c-0.4,0.3-0.8,0.5-1.2,0.8c-0.1,0-0.1,0.1,0,0.2c-0.1,0.1,0,0.3,0.2,0.3c0.1,0,0.2-0.1,0.3-0.1
				c0,0.1,0.1,0.2,0.2,0.1c0.2,0,0.3,0.1,0.5,0.2c0.1,0.1,0.1,0,0.1-0.1c0-0.2-0.2-0.3-0.3-0.4l0.2-0.2c0.1,0.2,0.3,0.3,0.5,0.2
				c1.5-1,3.2-1.8,4.8-2.4c-0.3,0.2-0.5,0.4-0.7,0.6c-0.1,0.1,0,0.2,0.1,0.2c0.1,0,0.8-0.6,0.8-0.5c0,0.1,0.1,0.1,0.2,0.1
				c0.3-0.5,1.1-0.5,1.6-0.6c0-0.1,0.1-0.1,0.2-0.1c0,0,0,0.1,0.1,0.1c-0.7,0.2-1.3,0.5-1.8,0.9c-0.1,0.1,0,0.3,0.1,0.2
				c0.4-0.2,0.8-0.4,1.3-0.6c0.3-0.1,0.6-0.2,0.9-0.3c0,0,0.1,0.1,0.1,0c0.1,0,0.2-0.1,0.3-0.1c0.1,0,0.2,0,0.3-0.1
				c0,0,0.1-0.1,0-0.1l0,0c0.1,0.1,0.2,0.2,0.3,0.2c0,0.1,0.1,0.1,0.1,0.1c0.1,0,0.1,0,0.2,0c-0.1,0.2-0.3,0.4-0.4,0.6
				c0,0,0,0,0,0.1c-3.4,1.8-6.7,3.6-9.9,5.7c-0.4,0.3,0,1,0.4,0.8c1.3-0.6,2.6-1.2,3.9-1.9c0.1,0.2,0.3,0.3,0.5,0.2
				c0.8-0.3,1.6-0.6,2.5-0.9c0.1,0,0.1-0.1,0.1-0.2l0.7-0.3c0.1,0.1,0.2,0.2,0.4,0.3l-1.7,1.1c-0.4,0.2,0,1,0.4,0.8
				c1.1-0.5,2.2-1,3.3-1.4c-0.7,0.4-1.4,0.8-2.1,1.3c-0.1,0-0.2,0.1-0.2,0.1c0,0-0.1,0-0.1,0.1c-2.7,1.2-5.7,2-8.2,3.6
				c-0.1,0.1-0.1,0.4,0.1,0.4c1.8,0.1,3.5-0.4,5.2-1.1c-0.4,0.6,0.1,1.9,0.9,1.7c1.4-0.4,2.8-1,4.2-1.6c-0.3,0.3-0.3,0.9,0,1.5
				c-0.8,0.3-1.5,0.6-2.2,0.9c-2.3,0.9-4.3,2.2-6.3,3.5c-0.8,0.4-1.6,0.8-2.3,1.3c0-0.1-0.1-0.1-0.2-0.1c0,0-0.2,0.1-0.3,0.2l0,0
				c0,0,0,0-0.1,0l-0.1,0c-0.1,0-0.1,0.1,0,0.2c0.1,0.1,0.1,0.1,0.2,0.2c0,0,0,0,0.1,0l0,0c0.1,0,0.2,0,0.2,0l0,0
				c0,0.3,0.1,0.6,0.4,0.7c0.8,0.3,1.8-0.1,2.6-0.6c0,0.2,0.2,0.5,0.4,0.4c0.8-0.2,1.6-0.6,2.4-0.9c0,0.1,0.1,0.2,0.2,0.1
				c1.2-0.5,2.4-1.1,3.5-1.8l0.5-0.2c0.1,0.2,0.3,0.4,0.5,0.3l1.2-0.4c-0.6,0.3-1.2,0.5-1.7,0.8c-0.1,0.1-0.2,0.2-0.2,0.3
				c-0.4,0.2-0.7,0.4-1.1,0.6c-0.1,0.1,0,0.3,0.1,0.3c0.4-0.1,0.8-0.3,1.1-0.5c0.1,0.1,0.2,0.2,0.3,0.3l0,0c-0.1,0.1,0,0.3,0.2,0.3
				c0,0,0.1,0,0.1,0c0.1,0.4,0.4,0.7,0.8,0.6l0.7-0.4c0,0,0.1,0.1,0.1,0.1c0.3-0.1,0.6-0.2,0.8-0.3c-0.5,0.2-0.9,0.6-1.2,0.9
				c-1.3,0.6-2.6,1.1-3.9,1.7c-0.1,0-0.1,0.1-0.1,0.2c0,0,0,0-0.1,0c-0.1-0.1-0.2,0-0.2,0.1l0,0c0,0,0,0.1,0,0.1
				c-0.1,0.1-0.2,0.2-0.3,0.3c-0.1,0.1,0.1,0.3,0.2,0.3l0.1-0.1c0,0,0,0,0,0l0,0l0.5-0.2c0.1,0,0.1,0.1,0.2,0.1
				c1.2-0.3,2.4-0.6,3.6-1c-1.2,0.6-2.3,1.3-3.4,2c-0.1,0.1-0.2,0.2-0.2,0.4c-0.6,0.4-1.2,0.8-1.8,1.3c-0.1,0.1,0.1,0.4,0.2,0.4
				c1.1-0.1,2.2-0.3,3.3-0.7c0,0.3,0.3,0.6,0.5,0.5c1.9-0.7,3.7-1.5,5.6-2.2l2.8-1.2l2.8-1.1l11.1-4.6c1-0.4,2.1-0.7,3.1-1
				c3.2-1,6.5-1.8,9.4-3.4c0.1,0,0.1-0.1,0.1-0.3c1.1-0.3,2.1-0.7,3.2-1c3.4-1,6.9-1.9,10.3-3l-6.1,2.5c-2,0.8-4.1,1.6-6.1,2.5
				c-4,1.8-8.1,3.5-12.1,5.4c-0.7,0.3-1.3,0.6-2,0.8c-3.7,1.6-7.4,3.2-11.2,4.7c-2.1,0.8-4.2,1.6-6.3,2.4c-1.7,0.6-3.4,1-5,1.9
				c-0.2,0.1,0,0.4,0.2,0.4c2,0,4-0.5,5.9-1.2c1.9-0.7,3.7-1.5,5.5-2.2c3.7-1.4,7.3-2.8,10.9-4.4c1.2-0.5,2.4-1,3.6-1.5
				c2.8-1,5.5-2,8.2-3.1l4.1-1.6c1.4-0.5,2.7-1,4.1-1.6l2.6-0.8c0.1,0,0.1-0.1,0.1-0.2l7.7-3c2.6-1,5.1-1.9,7.7-2.9l7.7-2.9l7.7-2.8
				c-2.2,1.1-4.5,2.1-6.7,3.1c-2.2,1-5,1.6-6.8,3.4c-0.1,0.1,0,0.5,0.2,0.5C141.1,191,143.7,189.4,145.9,188.3z M89.5,148.9
				l-0.7,0.2l1.6-0.7L89.5,148.9z M94.2,147.7l-1.1,0.3l0.9-0.4C94.1,147.6,94.1,147.6,94.2,147.7z M222.3,106.5l-3.6,0.9
				c0.5-0.3,1-0.5,1.5-0.8l0,0c0.9-0.2,1.8-0.5,2.7-0.7c-0.2,0.1-0.3,0.3-0.5,0.4C222.3,106.2,222.3,106.3,222.3,106.5z M61.8,162.4
				c0.5,0,1-0.1,1.5-0.2c-0.5,0.2-0.9,0.4-1.4,0.6c-0.1-0.1-0.2-0.3-0.3-0.4C61.7,162.4,61.7,162.4,61.8,162.4z M101.4,145.6
				c2.2-0.6,4.4-1.2,6.6-1.8l0.2,0l-8.2,2.6l-1.4,0.3L101.4,145.6z M128.7,136.1c-2.4,0.7-4.8,1.5-7.1,2.3l-7.1,2.3l-0.5,0.1
				l10.1-3.7l2.3-0.9l2.3-0.8C128.6,135.7,128.6,135.9,128.7,136.1z M64.4,164.1c-0.1-0.1-0.1-0.1-0.2-0.1c0.4-0.1,0.8-0.2,1.2-0.4
				C65.1,163.8,64.8,163.9,64.4,164.1z M151.1,132c1.4-0.3,2.8-0.6,4.2-0.8C153.9,131.4,152.5,131.7,151.1,132z M183.1,121.5
				l-3.2,0.7c1.6-0.5,3.3-1.1,4.9-1.6c1.2-0.4,2.5-0.7,3.7-1C186.7,120.2,184.9,120.8,183.1,121.5z M296.7,97.9
				c0.3-0.2,0.6-0.4,0.8-0.5c0.2-0.1,0.5-0.4,0.7-0.6c0.5,0,1.1,0.1,1.6,0.3c-0.2,0.1-0.3,0.2-0.5,0.2
				C298.5,97.5,297.6,97.7,296.7,97.9z M111,149.6L111,149.6c0.2-0.2,0.1-0.5-0.1-0.6c-0.2-0.1-0.4-0.1-0.6-0.2c0,0-0.1-0.1-0.1-0.1
				c0.7-0.1,1.5-0.2,2.3-0.3l-0.9,0.3c-0.2,0.1,0,0.5,0.1,0.4l0.7-0.2C112,149.2,111.5,149.4,111,149.6z M112,149.7l-0.6,0.2
				c0.8-0.3,1.6-0.7,2.3-1.1l0.6-0.3l2.6-0.6C115.3,148.4,113.7,149,112,149.7z M139.1,143.9l-0.6,0.2c0-0.3-0.3-0.5-0.5-0.4
				l-2.3,0.9l1.4-0.6c0.1,0,0.1-0.2,0.1-0.3c0.6-0.1,1.1-0.2,1.7-0.2l0,0C139,143.6,139,143.8,139.1,143.9z M65.9,174.7
				c-0.2,0.1-0.5,0.2-0.2,0c0,0,0-0.1,0-0.1l0.1,0C65.8,174.6,65.8,174.7,65.9,174.7z M84.2,179.7l-1.1,0.4
				c-0.2-0.1-0.4-0.2-0.6-0.1l-1.3,0.5c0.5-0.2,1-0.4,1.5-0.6c0.1,0,0.1,0,0.2,0C83.2,179.9,83.7,179.8,84.2,179.7z M74.4,185.8
				c-0.4,0.1-0.7,0.1-1,0.4l0,0c0,0,0-0.1-0.1-0.1l1.4-0.5c0,0,0,0,0,0C74.7,185.7,74.5,185.8,74.4,185.8z M162.2,176.7
				c-1.8,0.7-3.6,1.3-5.4,2c2-0.8,4-1.6,6-2.4l6.1-2.4c4-1.6,8.1-3.1,12.2-4.6l6.5-2.4c2.2-0.8,4.3-1.5,6.5-2.3
				c4.3-1.5,8.7-3.1,13-4.5c4.1-1.3,8.1-2.5,12.2-3.8c4.1-1.2,8.2-2.4,12.3-3.7l2.1-0.4l2.1-0.4l4.3-0.8c-6.1,1.7-12.2,3.7-18.3,5.5
				c-3,0.9-6.1,1.9-9.1,2.9l-9.1,2.9l-9,3c-3,1-6,2-9,3c-6,2.1-12,4.1-18,6.3L162.2,176.7z M72.7,187.5c-0.1,0.2-0.3,0.2-0.5,0.3
				c-0.2,0.1-0.3,0.3-0.5,0.4l0,0c-0.1,0-0.2-0.1-0.1-0.2c0.1-0.4,0.6-0.9,1.1-0.8C72.7,187.3,72.8,187.4,72.7,187.5z M91,207.6
				c-2.5,1-5,2.1-7.5,3c-0.1,0-0.1-0.1-0.1-0.1c2.3-1.3,4.9-2.2,7.5-3C91,207.5,91.1,207.6,91,207.6z M75.5,153.1
				c-3.2,1.7-6.5,3.2-9.8,4.6c-0.1,0-0.2-0.1-0.1-0.2c3.2-1.6,6.5-3.3,9.8-4.6C75.5,152.9,75.6,153,75.5,153.1z M72.9,206.5
				C72.9,206.5,72.9,206.5,72.9,206.5C72.8,206.4,72.9,206.4,72.9,206.5z"/>
		</g>
		<g>
			<path class="st2" d="M242.7,119.2c-1.9-0.1-3.8,0.3-5.7,0.6c-1.8,0.2-3.6,0.5-5.4,0.9c-0.2,0.1-0.1,0.5,0.1,0.5
				c1.9,0,3.8-0.3,5.7-0.6c1.8-0.3,3.6-0.4,5.4-0.8C243,119.6,242.9,119.2,242.7,119.2z"/>
			<path class="st2" d="M276.5,85.5c0.1,0,0.1-0.1,0-0.1c-1.9,0-3.8,0.1-5.7,0.3c0,0,0,0.1,0,0.1C272.7,85.8,274.6,85.6,276.5,85.5z
				"/>
			<path class="st2" d="M285.1,102c0,0,0.1,0.1,0.1,0.1c0,0,0,0,0.1,0c0.1,0,0.3,0,0.4,0c0.1,0,0.1-0.1,0-0.1
				c-0.2-0.1-0.4-0.1-0.5-0.1C285.1,101.9,285.1,102,285.1,102z"/>
			<path class="st2" d="M284.1,100.4c0.4,0,0.7-0.2,1.1-0.1c0.1,0,0.1-0.1,0-0.2c0.3,0,0.5,0,0.8,0c0.1,0,0-0.1,0-0.1
				c-0.3-0.1-0.6-0.1-0.9-0.1c-0.2,0-0.3,0-0.5,0c0,0,0,0,0,0c0,0-0.1,0-0.1,0c0,0-0.1,0-0.1,0.1c-0.1-0.1-0.2,0-0.3,0.1
				c-0.1,0-0.1,0-0.2,0.1C284.1,100.3,284.1,100.4,284.1,100.4z"/>
			<path class="st2" d="M275.9,111.9c-0.4-0.1-0.7-0.1-1.1-0.1c0-0.1-0.1-0.1-0.2-0.1c-0.7-0.1-1.4-0.1-2.1-0.1
				c0.6-0.1,1.3-0.2,1.9-0.4c0,0,0.1,0,0.1-0.1l0.3,0l0,0c0,0,0,0,0,0l0.1,0c0.1,0,0.1-0.1,0-0.2c-0.1,0-0.2-0.1-0.2-0.1
				c0,0,0,0,0,0l0,0c0,0-0.1-0.1-0.1,0c0,0,0,0,0,0c0,0-0.1-0.1-0.1-0.1c-0.7,0.1-1.5,0.2-2.2,0.2c-0.3-0.1-0.5-0.1-0.8-0.1
				c0.2,0,0.3,0,0.5-0.1c0,0,0,0,0,0l0.4,0c0.2,0,0.3-0.2,0.2-0.4c0,0,0,0,0.1,0c0.1,0,0.1-0.1,0-0.2l0,0c0.1,0,0.1-0.1,0.1-0.2
				c0.2,0,0.4,0,0.6-0.1c0.1,0,0-0.2,0-0.2c-0.2,0-0.4,0-0.7,0c0-0.1-0.1-0.1-0.1-0.1c-0.3,0-0.7,0-1,0.1l0.6-0.1
				c0.1,0,0.2-0.1,0.2-0.3l0.3,0c0.7,0.1,1.4,0,2.1,0c0,0,0.1-0.1,0-0.1c0.4,0,0.9-0.1,1.3-0.2c0.1,0,0.1-0.2,0.1-0.3
				c0.5,0,1,0,1.3-0.4c0.1-0.1,0.1-0.3,0-0.4l0,0c0,0,0.1,0,0.1,0l0,0c0,0,0,0,0,0c0,0,0.1-0.1,0.1-0.1c0-0.1,0-0.1-0.1-0.1l0,0
				c0,0,0,0,0,0l0,0c-0.1,0-0.2,0-0.2,0c0,0-0.1,0-0.1,0.1c-0.5,0-0.9,0-1.4,0c-1.3-0.1-2.5-0.2-3.8,0c-0.4,0-0.8,0.1-1.3,0.1
				c0-0.3-0.1-0.6-0.4-0.7c0.8-0.1,1.6-0.1,2.3-0.3c0.4-0.1,0.3-0.8,0-1c0.9-0.1,1.8-0.3,2.6-0.8c0.1-0.1,0-0.2,0-0.2
				c-1.5-0.1-3.1,0.3-4.7,0.4c0,0,0,0-0.1,0c0,0-0.1,0-0.1,0c-0.4-0.1-0.9-0.1-1.3-0.1c0.6-0.1,1.2-0.1,1.9-0.1c0.2,0,0.2-0.5,0-0.5
				l-1.1-0.1c0.1,0,0.1-0.1,0.1-0.2l0.4,0c0,0.1,0.1,0.1,0.1,0.1c0.5-0.1,0.9-0.1,1.4-0.2c0.1,0,0.2-0.1,0.2-0.2
				c0.8,0,1.5-0.1,2.3-0.1c0.2,0,0.2-0.5,0-0.5c-2-0.2-4-0.2-6-0.2c0,0,0,0,0,0c-0.1-0.1-0.2-0.1-0.3-0.2c0,0,0,0,0.1-0.1
				c0,0,0-0.1,0-0.1c0.1,0,0.1-0.1,0.1-0.2l0,0c0,0,0,0.1,0,0c0,0,0.1,0,0.1,0c0.1,0,0.1,0,0.2,0c0,0,0,0,0.1-0.1
				c0.2,0,0.3-0.1,0.5-0.1c0.2,0,0.5,0,0.7,0c0.1,0,0.1-0.1,0-0.1c-0.3-0.1-0.7-0.1-1.1,0c0,0,0,0,0-0.1c0,0,0.1,0,0.1,0
				c0.3,0,0.6-0.2,0.9-0.1c0,0,0.1,0,0.1-0.1c0-0.1,0.5,0,0.5,0c0.1,0,0.1-0.1,0-0.1c-0.2,0-0.3-0.1-0.5-0.1
				c0.9-0.1,1.9-0.2,2.8-0.1c0.1,0,0.2-0.1,0.2-0.2l0.1,0c0,0.1-0.1,0.2,0,0.3c0,0,0.1,0.1,0.1,0c0-0.1,0.1-0.2,0.2-0.2
				c0,0,0.1-0.1,0.1-0.1c0,0,0.1,0,0.1,0c0.1,0,0.1-0.1,0-0.2c0,0,0-0.1-0.1-0.1c-0.2,0-0.5-0.1-0.7-0.1c-0.2-0.1-0.4-0.1-0.7,0l0,0
				l0,0l0,0c0,0,0,0,0,0c-0.9-0.1-1.8-0.1-2.8,0c-0.1-0.1-0.1-0.1-0.2-0.1l-0.1,0c0,0-0.1,0-0.1,0c-0.1,0-0.1,0-0.2,0l-0.9,0
				c0-0.2,0-0.4-0.2-0.4c-0.2,0-0.5,0-0.7-0.1c0.1,0,0-0.1,0-0.2c0.3,0,0.6,0,0.8,0c0.1,0,0.1-0.1,0-0.1l-0.2,0l0.3-0.1l0,0l0,0
				c0.4-0.1,0.9-0.2,1.4-0.3c0.2,0,0.1-0.4,0-0.4c0,0-0.1,0-0.1,0c0.2,0,0.4-0.1,0.5-0.1c0.5-0.1,0.8-0.1,1.2-0.4c0,0,0,0,0,0
				l0.1-0.1c0,0,0,0,0.1-0.1l0.2,0l0,0c0.1,0,0.1-0.1,0-0.2c-0.1,0-0.1,0-0.2,0c0,0,0,0-0.1,0c-0.3-0.1-0.7-0.1-1-0.2
				c0.6-0.1,1.3-0.2,1.9-0.3c0,0,0,0,0.1,0c0.2,0,0.5-0.2,0.7-0.3c0.1,0,0.1-0.1,0.2-0.1c0.1,0,0.2-0.1,0.3-0.1
				c0.1,0,0.1-0.1,0.1-0.1c0,0,0,0,0,0c0,0,0,0,0-0.1c0,0,0,0,0.1,0c0.1,0,0.1-0.1,0.1-0.2c0.2,0,0.4,0,0.6,0c0.1,0,0.1-0.2,0-0.2
				c0,0-0.1,0-0.1,0c-0.2,0,0.3-1.6,0.1-1.5c0.1-2.3-1.4-2.2-3.3-4.8c1.2,0,2.3-0.1,3.5-0.3l1.4,0c0,0,0-0.1,0-0.1l0,0
				c0.1,0,0.1-0.1,0-0.1c-0.2,0-0.4,0-0.6,0.1c0.1-0.1,0-0.4-0.1-0.4c-1.2-0.1-2.5,0-3.7,0c0.2-0.1,0.4-0.1,0.6-0.2
				c0,0,0.1-0.1,0.1-0.1c0.4,0,0.8-0.1,1.1-0.2c0.1,0,0-0.1,0-0.1c-0.4,0-0.7,0-1.1,0c0-0.1-0.1-0.1-0.1-0.2
				c-0.4-0.1-0.7-0.1-1.1-0.1c0-0.1-0.1-0.3-0.2-0.4c0.1-0.1,0.1-0.3,0-0.4c0.2-0.1,0.5-0.2,0.7-0.3c0.1-0.1,0.1-0.1,0.1-0.2
				c0.3-0.1,0.5-0.1,0.8-0.2c0.1,0,0.1-0.2,0-0.2c-0.1,0-0.2-0.1-0.3-0.1c0.3,0,0.6,0,0.9,0c0.1,0,0.1-0.1,0-0.1c-0.5,0-1.1,0-1.6,0
				c-1-0.1-2-0.1-2.9-0.1c-1.3,0-2.6,0.1-4,0.1c-1.1,0.1-2.2,0.2-3.3,0.3c-0.5,0.1-1.1,0.1-1.6,0.2c-0.5,0.1-1.1,0.2-1.6,0.3
				c-1.6,0.1-3.2,0.2-4.8,0.4l-2.4,0.2l-2.4,0.3c-0.7,0.1-1.4,0.1-2,0.2c0,0,0,0,0,0c-1.5,0.2-2.9,0.3-4.4,0.5l-4.7,0.6l-2.4,0.3
				l-1.2,0.2l-1.2,0.2l-4.7,0.7c-1.6,0.2-3.2,0.5-4.7,0.8c-3.5,0.6-7,1.1-10.4,2.1c-0.1,0-0.1,0.3,0.1,0.3c0.8-0.1,1.6-0.2,2.4-0.3
				l2.4-0.3c1.6-0.2,3.2-0.5,4.7-0.8l2.4-0.4c0.8-0.2,1.6-0.3,2.4-0.4c1.6-0.3,3.1-0.5,4.7-0.8l2.1-0.3l2.1-0.3l4.2-0.6l2.1-0.3
				c0.7-0.1,1.4-0.2,2.1-0.3l4.2-0.5c0,0,0,0,0,0.1c-1,0.2-1.9,0.4-2.9,0.6l-0.8,0.1l-2.3,0.3l-2.3,0.3l-4.6,0.6
				c-1.5,0.2-3,0.4-4.6,0.7l-4.6,0.7c-1.5,0.2-3,0.5-4.5,0.8c-1.5,0.3-3,0.6-4.5,0.9c-0.1,0-0.1,0.2,0,0.2c2-0.3,4-0.6,6.1-0.9
				c-0.6,0.2-1.1,0.3-1.7,0.4c-1.9,0.4-3.8,0.7-5.7,1c-1.9,0.3-3.8,0.6-5.8,0.9c-1,0.1-1.9,0.3-2.9,0.4c-1,0.2-1.9,0.3-2.9,0.5
				c-1.2,0.2-2.4,0.4-3.6,0.7l-1.8,0.4l-1.8,0.4c-2.4,0.5-4.7,1.1-7.1,1.7c-1.4,0.3-2.8,0.7-4.3,0.9l3-0.7l1.5-0.4l1.5-0.3
				c2-0.5,4.1-0.9,6.1-1.5c1-0.3,2-0.5,3.1-0.7c1-0.2,2-0.5,3.1-0.7c1-0.3,2-0.5,3.1-0.8c1-0.3,2-0.5,3-0.8c0.1,0,0-0.1,0-0.1
				c-0.9,0.2-1.9,0.3-2.8,0.5c-0.9,0.2-1.9,0.4-2.8,0.6c-1.8,0.4-3.7,0.9-5.5,1.3c-1.8,0.5-3.7,0.9-5.5,1.4
				c-0.9,0.2-1.8,0.4-2.8,0.7l-2.8,0.7c-1.5,0.3-2.9,0.7-4.4,1c-0.2,0-0.4,0-0.5,0c-0.1,0-0.2,0.1-0.2,0.2c-1.1,0.3-2.2,0.5-3.3,0.8
				c-1.1,0.3-2.2,0.6-3.3,0.9l-2.7,0.6c-2.9,0.7-5.9,1.5-8.8,2.2c-2.9,0.8-5.7,1.5-8.6,2.4c-2.2,0.7-4.8,1.2-6.7,2.7
				c-0.5,0.2-1.1,0.3-1.7,0.5c-0.9,0.5-1.7,0.9-2.7,1.2c-1.5,0.4-3.2,0.7-4.3,1.9c-0.1,0.1,0,0.2,0.1,0.1c0.7-0.4,1.5-0.7,2.3-1
				c0,0.1,0,0.2,0.1,0.3c-0.5,0.2-0.9,0.4-1.4,0.7c-0.2,0.1,0,0.5,0.2,0.5c0.4-0.1,0.8-0.2,1.1-0.4c0,0,0,0,0,0l-0.1,0.6
				c0,0.1,0.1,0.3,0.2,0.3c0.2,0.1,0.4,0.1,0.5,0.1c0,0.1,0.1,0.2,0.1,0.2c-0.3,0.3-0.6,0.6-0.8,1.1c-0.1,0.2,0.1,0.5,0.3,0.5
				c0,0,0.1,0,0.1,0c0,0,0,0,0.1,0.1l-0.1,0.1c-0.4,0.2-0.9,0.3-1.3,0.5c-0.1,0-0.1,0.3,0.1,0.3c0,0,0.1,0,0.1,0
				c0,0.2,0.1,0.3,0.2,0.4l-0.3,0.1c-0.2,0.1-0.1,0.4,0.1,0.4c0.3,0,0.5,0,0.7,0c0,0,0,0,0,0c0.3,0.5,0.7,0.6,1.1,0.6l-0.2,0.1
				c-0.1,0-0.1,0.1-0.1,0.2L143,120c-0.1,0-0.1,0.3,0.1,0.3c0.2,0,0.5,0,0.7,0c0,0.1,0.1,0.1,0.1,0.1c0,0,0.1,0,0.1,0l0,0.2
				c0,0.1-0.1,0.1,0,0.3c0,0.1,0.1,0.3,0.1,0.5c-0.1,0-0.2,0-0.3,0.1c-0.1,0.1-0.1,0.2-0.2,0.3c0,0-0.1,0-0.1,0
				c-0.1,0-0.1,0.1-0.1,0.2l0,0c-0.1,0.1,0,0.2,0.1,0.2c0.1,0,0.2,0.1,0.3,0c0.1,0,0.3,0,0.4,0c0.1,0.3,0.4,0.6,0.6,0.7
				c0.4,0.4,0.8,0.6,1.2,0.6l0,0c-0.6,0.2-1.1,0.5-1.6,0.8c-0.2,0.1-0.1,0.4,0.1,0.6c-0.4,0-0.8,0.2-1.1,0.5c-0.1,0.1,0,0.2,0.1,0.2
				c0,0,0.1-0.1,0.1-0.1c0,0,0,0,0,0c0.1,0,0.1-0.1,0.2-0.1c0,0.1,0,0.2,0,0.3c0.1,0.1,0.2,0.2,0.3,0.2c0.2-0.1,0.4-0.2,0.6-0.2
				c0,0,0,0.1,0.1,0.1c0.1,0,0.2,0,0.2,0l0,0c0,0,0,0.2,0.1,0.2c0.1,0,0.2,0,0.3,0c0,0.1,0.1,0.1,0.2,0.2c0.2,0.4,0.5,0.6,0.8,0.7
				l-0.1,0c-0.1,0-0.3,0-0.4,0.1c0,0,0,0.1,0,0.1c0,0,0.1,0,0.1,0c0,0-0.1,0-0.1,0.1c0,0,0,0,0,0c-0.4,0.1-0.8,0.3-1.2,0.4
				c-0.1,0.1-0.2,0.2-0.2,0.4c-0.1,0-0.1,0.1-0.2,0.1c0,0,0,0.1,0,0.1c0.1,0,0.1,0,0.1,0c0,0,0,0,0,0c0,0,0,0.1,0.1,0.1
				c0,0,0.1,0,0.1,0c0,0,0.1,0.1,0.2,0.1l0.6,0.1l-0.1,0c-0.3,0.2-0.1,0.8,0.3,0.8c1.2,0.2,2.3,0.2,3.4-0.1c-0.8,0.3-1.6,0.6-2.3,1
				c-0.2,0.1-0.3,0.2-0.5,0.3c0,0,0,0.1,0,0.1c-0.1,0-0.1,0.1-0.2,0.1c-0.1,0,0,0.1,0,0.2c0.1,0.1,0.3,0.2,0.4,0.2
				c0.1,0.1,0.1,0.1,0.2,0.1c0.1,0,0.2,0,0.3-0.1c0,0.1,0.1,0.2,0.2,0.3c0,0-0.1,0-0.1,0c-0.3,0.1-0.2,0.7,0.2,0.8l0.6,0.1
				c0.1,0.3,0.1,0.6,0.3,0.9c0,0.1,0,0.2,0.1,0.2l0,0c0.1,0.1,0.2,0.1,0.3,0.1c0.3-0.1,0.5-0.2,0.8-0.3c0,0,0,0,0,0l0.4-0.1
				c0,0,0,0,0,0c0,0,0,0,0.1,0l0.5-0.1c-0.7,0.2-2.1,0.5-1.9,1.7c0.1,0.3,0.3,0.5,0.5,0.4l0.1,0c0,0,0,0,0,0.1
				c-0.1,0.1-0.1,0.2,0,0.3l-0.1,0c-0.1,0-0.1,0.1,0,0.2l0,0c0,0,0,0.1,0,0.2c-0.1,0-0.2,0.1-0.2,0.1c-0.1,0.1,0,0.3,0.1,0.2l0.1,0
				c0,0,0,0,0,0c0.5-0.2,1-0.4,1.5-0.5l0.1,0c-0.2,0.2,0,0.6,0.3,0.6l0.7-0.1l-0.1,0c-0.1,0-0.2,0.2-0.2,0.3c-0.1,0-0.1,0.2,0,0.2
				c0,0,0,0,0.1,0c0,0,0.1,0.1,0.1,0.1c0,0,0,0,0,0.1c-0.1,0-0.1,0.1-0.2,0.1l0,0l0,0l0,0c-0.1,0,0,0.2,0.1,0.2c0.1,0,0.1,0,0.2,0
				c0,0-0.1,0-0.1,0.1c-0.1,0,0,0.1,0.1,0.1c0.4,0,0.7-0.2,1.1-0.4c0.4-0.1,0.8-0.3,1.2-0.4c1.1-0.4,2.1-0.8,3.2-1.1
				c0.1,0.2,0.3,0.3,0.5,0.2l1-0.3c0,0,0,0,0.1,0l0,0c-0.9,0.3-1.8,0.5-2.7,0.8c-0.9,0.3-1.7,0.7-2.5,1.1c-0.1,0-0.1,0.1-0.1,0.1
				c-0.1,0-0.3,0.1-0.4,0.1c0,0,0,0,0,0c-0.2,0-0.4,0.1-0.6,0.3c0,0.1,0,0.2,0.1,0.1c0.1-0.1,0.3-0.2,0.5-0.2c0,0,0,0,0.1,0l0.1,0
				c0,0,0,0,0,0l0,0l0,0c-0.1,0,0,0.2,0.1,0.2c0.2,0,0.5,0.1,0.6,0c0,0.3,0.3,0.5,0.5,0.5l0.7-0.1c0,0,0,0.1,0.1,0.1
				c0.1,0,0.2-0.1,0.3-0.1l0,0c-0.1,0,0,0.2,0,0.2l0.1,0l-0.2,0.1c0,0,0,0.1,0,0.1c-0.1,0-0.3,0.1-0.4,0.2c0,0,0,0.1,0,0.1
				c0.1,0,0.2,0,0.3,0c0,0.1,0,0.1,0.1,0.1c0.1,0,0.2-0.1,0.3-0.1c0,0,0,0,0.1,0c0.3-0.1,0.5-0.1,0.8-0.2l0.1,0c0,0,0,0,0,0
				c0,0,0.1,0,0.1-0.1c0.4-0.1,0.8-0.2,1.1-0.4c0,0,0,0,0-0.1c2-0.6,4-1.3,5.9-2.1l1.2-0.4l1.2-0.3c0.8-0.2,1.6-0.5,2.3-0.7
				c1.6-0.5,3.1-1,4.7-1.6c0.1,0,0-0.3-0.1-0.2c-1.5,0.5-3,1-4.5,1.5l3.5-1.2c1.7-0.6,3.5-1,5.1-1.8c0.1,0,0-0.2-0.1-0.2
				c-0.9,0.1-1.8,0.4-2.7,0.7c-0.9,0.3-1.8,0.6-2.6,0.9c-1.8,0.6-3.6,1.2-5.4,1.8c-1.5,0.5-2.9,1-4.4,1.5c-1.5,0.5-2.9,1-4.3,1.7
				l-0.3,0.1c0-0.1-0.1-0.2-0.1-0.2c1-0.3,2.1-0.6,3.1-1c0.2-0.1,0.2-0.3,0.1-0.5l1.1-0.5c0.9-0.3,1.7-0.5,2.6-0.7
				c0.1,0,0.1-0.2,0-0.3c0.5-0.2,1-0.4,1.5-0.5c1.3-0.4,2.6-0.9,3.9-1.3c1.3-0.4,2.7-0.7,4-1.2c0.1-0.1,0-0.3-0.1-0.3
				c-0.4,0-0.7,0.1-1.1,0.1l0.4-0.1c0.2-0.1,0.2-0.3,0.1-0.4l0.9-0.3c2.2-0.5,4.5-1,6.7-1.4l5.1-1l2.5-0.5l2.5-0.5l5.1-1
				c1.7-0.3,3.4-0.6,5.1-0.9l3.9-0.7l3.9-0.6l3.9-0.7l3.9-0.6c-0.5,0.1-1.1,0.2-1.6,0.3c-0.6,0.1-1.2,0.2-1.8,0.3
				c-0.6,0.1-1.2,0.2-1.8,0.4c-0.2,0.1-0.2,0.5,0.1,0.5c0.6,0,1.3,0,1.9-0.1c0.6-0.1,1.3-0.1,1.9-0.3c1.1-0.2,2.4-0.3,3.4-0.9
				c0.2-0.1,0.1-0.4-0.1-0.4c-0.4,0-0.7,0-1.1,0l3.8-0.6l3.8-0.6l3.8-0.6l3.8-0.5c0,0.1,0,0.2,0.1,0.2c1.5,0.3,2.9,0.4,4.4,0.4
				c1.3,0,2.8,0.1,3.9-0.7c0.1-0.1,0-0.2,0-0.3c-1.3-0.4-2.7,0-4,0.1c-1.3,0.1-2.6,0.2-3.9,0.2l4.2-0.6l4.3-0.6
				c1.4-0.2,2.8-0.4,4.3-0.6l4.3-0.5c0,0,0,0.1,0.1,0.1l1.4-0.2c0.8-0.1,1.5-0.2,2.3-0.3l2.3-0.3c1.5-0.2,3-0.4,4.6-0.6
				c0.7-0.1,1.3-0.1,2-0.2c2-0.2,4.1-0.4,6.1-0.7c1-0.1,2-0.2,3.1-0.4c1-0.2,2.1-0.4,3-0.9c0.1,0,0.1-0.2,0-0.2
				c-0.9,0-1.9,0.2-2.8,0.3c-1.2,0.2-2.3,0.3-3.5,0.5c-2.1,0.3-4.2,0.4-6.3,0.6c-0.4,0-0.7,0.1-1.1,0.1c-2.3,0.1-4.6,0.3-6.9,0.5
				c-1.1,0.1-2.3,0.2-3.4,0.3l-3.4,0.4c1.8-0.4,3.6-0.8,5.5-1.2c0.6-0.1,1.1-0.2,1.7-0.3c0,0,0.1,0.1,0.1,0.1c1.7,0,3.5-0.5,5.2-0.8
				c0.6-0.1,1.1-0.2,1.7-0.3l6.3-0.6l1.6-0.2l1.6-0.2c1-0.1,2.1-0.2,3.1-0.4c0.1,0,0.2-0.2,0.1-0.4c0.6-0.1,1.2-0.2,1.7-0.5
				C275.9,112.1,276,111.9,275.9,111.9z M269.7,101.8C269.7,101.8,269.7,101.8,269.7,101.8L269.7,101.8c-0.2,0-0.3,0.1-0.5,0.1
				c-0.1,0-0.2,0-0.2,0c0,0,0,0,0,0L269.7,101.8z M143.8,116.7c-0.1,0-0.2,0-0.3,0c0.2-0.2,0.4-0.4,0.7-0.5c0.2,0.1,0.4,0.1,0.5,0.1
				c0.2,0,0.4,0,0.5,0C144.7,116.5,144.2,116.7,143.8,116.7z M181.6,101.9c0,0-0.1-0.1-0.1-0.1c-0.1,0-0.2-0.1-0.3-0.1
				c0.5-0.1,0.9-0.2,1.4-0.3l0,0c0.3,0,0.6,0,0.9,0L181.6,101.9z M269.2,88C269.3,88,269.3,88,269.2,88c0,0,0,0.1,0,0.2
				c-0.3,0-0.5,0.1-0.8,0.1C268.7,88.2,269,88.1,269.2,88z M268.5,89.3c0,0,0,0.1-0.1,0.1c-0.2,0-0.4,0-0.6,0
				C268.1,89.4,268.3,89.4,268.5,89.3z M253.5,88.6l-0.4,0.1l-0.5,0L253.5,88.6z M250.7,89.2l0.5-0.1L250.7,89.2
				C250.7,89.2,250.7,89.2,250.7,89.2z M243.3,90.8c1.2-0.3,2.3-0.5,3.5-0.8l1.6-0.2l-0.7,0.2L243.3,90.8L243.3,90.8z M233.1,91.9
				l1.3-0.2l5.5-0.8l-0.3,0.1l-3.9,0.7c-1.3,0.2-2.6,0.4-3.8,0.7c0-0.1,0-0.2-0.1-0.3L233.1,91.9z M202.3,99.2
				c0.9-0.2,1.8-0.3,2.7-0.5l-1.7,0.5c-1,0.2-2,0.3-3,0.5C201,99.5,201.6,99.3,202.3,99.2z M226.5,119.4l-3,0.4
				c-3.3,0.5-6.5,1-9.8,1.5c-1.6,0.2-3.3,0.6-4.9,0.8l-4.9,0.8l-4.9,0.9c-1.6,0.3-3.3,0.6-4.9,0.9c-3.3,0.7-6.5,1.3-9.8,2l2.2-0.7
				l1.1-0.4l1.1-0.3c2.2-0.4,4.4-0.9,6.6-1.3c2.2-0.4,4.4-0.9,6.6-1.3c2.4-0.4,4.7-0.8,7.1-1.2c1.2-0.2,2.4-0.4,3.6-0.6l3.6-0.5
				c2.2-0.3,4.5-0.6,6.7-0.9l3.4-0.4c1.1-0.1,2.2-0.3,3.4-0.4C228.5,119.1,227.5,119.3,226.5,119.4z M264.1,101.3
				c-0.1,0-0.2,0.1-0.3,0.2l-0.6,0.1c0.2-0.1,0.5-0.2,0.7-0.2c0,0,0.1,0,0.1,0c0.3,0,0.5-0.1,0.8-0.1L264.1,101.3z"/>
			<path class="st2" d="M285.3,109.7C285.3,109.7,285.2,109.7,285.3,109.7C285.2,109.8,285.3,109.8,285.3,109.7z"/>
			<path class="st2" d="M277.2,114.7C277.1,114.7,277.1,114.8,277.2,114.7c1.4,0,2.8-0.2,4.2-0.4c0,0,0-0.1,0-0.1
				C280,114.2,278.5,114.4,277.2,114.7z"/>
			<path class="st2" d="M281.3,100.9c-0.2-0.2-0.5-0.2-0.7-0.1c0,0,0,0.1,0,0.1c0.1,0,0.2,0,0.3,0c0.1,0,0.2,0.1,0.3,0.1l0,0
				C281.3,101,281.3,100.9,281.3,100.9z"/>
		</g>
	</g>
</g>
</svg>
